<svg xmlns="http://www.w3.org/2000/svg" width="331" height="216.246" viewBox="0 0 331 216.246">
  <g id="グループ_23039" data-name="グループ 23039" transform="translate(-22 -6458.425)">
    <g id="グループ_5219" data-name="グループ 5219" transform="translate(-299 778.229)">
      <g id="グループ_2907" data-name="グループ 2907" transform="translate(321 5735.027)">
        <path id="パス_990" data-name="パス 990" d="M57.033,150.55s-12.218-6.82-7.388-26c0,0,9.945,9.519,7.388,26" transform="translate(0 0.001)" fill="#e8e8e8"/>
        <path id="パス_991" data-name="パス 991" d="M57.453,158.791S43.678,146.715,27.481,151.4c0,0,12.491,16.2,29.972,7.388" transform="translate(0 0.001)" fill="#e8e8e8"/>
        <path id="パス_992" data-name="パス 992" d="M40.165,130.867s-11.111-8.506-3.572-26.792c0,0,8.473,10.851,3.572,26.792" transform="translate(0 0.001)" fill="#e8e8e8"/>
        <path id="パス_993" data-name="パス 993" d="M39.4,139.082S27.5,125.15,10.8,127.461c0,0,10.032,17.824,28.6,11.621" transform="translate(0 0.001)" fill="#e8e8e8"/>
        <path id="パス_994" data-name="パス 994" d="M26.653,108.83s-7.732-11.663,5.355-26.493c0,0,4.474,13.019-5.355,26.493" transform="translate(0 0.001)" fill="#e8e8e8"/>
        <path id="パス_995" data-name="パス 995" d="M23.248,116.346S16.543,99.3,0,96.039c0,0,3.674,20.12,23.248,20.307" transform="translate(0 0.001)" fill="#e8e8e8"/>
        <path id="パス_996" data-name="パス 996" d="M19.543,86.245s-3.489-11.54,10.985-20.533c0,0,.465,11.851-10.985,20.533" transform="translate(0 0.001)" fill="#e8e8e8"/>
        <path id="パス_997" data-name="パス 997" d="M14.871,91.6S13.563,75.874.721,69.084c0,0-1.955,17.514,14.15,22.519" transform="translate(0 0.001)" fill="#e8e8e8"/>
        <path id="パス_998" data-name="パス 998" d="M18.666,64.31S17.59,53.52,31.924,48.1c0,0-1.646,10.541-13.258,16.215" transform="translate(0 0.001)" fill="#e8e8e8"/>
        <path id="パス_999" data-name="パス 999" d="M13.613,68.227S15.189,54.119,5.034,45.9c0,0-4.765,15.116,8.579,22.329" transform="translate(0 0.001)" fill="#e8e8e8"/>
        <path id="パス_1000" data-name="パス 1000" d="M22.85,46.026s.694-10.289,15-13.113c0,0-3.209,9.625-15,13.113" transform="translate(0 0.001)" fill="#e8e8e8"/>
        <path id="パス_1001" data-name="パス 1001" d="M17.493,48.9s3.706-12.982-4.52-22.3c0,0-6.856,13.424,4.52,22.3" transform="translate(0 0.001)" fill="#e8e8e8"/>
        <path id="パス_1002" data-name="パス 1002" d="M26.644,29.031s3.223-7.886,15.171-6.376a18.644,18.644,0,0,1-15.171,6.376" transform="translate(0 0.001)" fill="#e8e8e8"/>
        <path id="パス_1003" data-name="パス 1003" d="M21.694,29.891s6.286-9.213,2.262-18.657c0,0-8.871,8.739-2.262,18.657" transform="translate(0 0.001)" fill="#e8e8e8"/>
        <path id="パス_1004" data-name="パス 1004" d="M35.191,16.92s3.386-6.805,14.327-4.944c0,0-4.983,5.69-14.327,4.944" transform="translate(0 0.001)" fill="#e8e8e8"/>
        <path id="パス_1005" data-name="パス 1005" d="M30.581,17.458s6.281-7.839,3.063-16.34c0,0-8.64,7.307-3.063,16.34" transform="translate(0 0.001)" fill="#e8e8e8"/>
        <path id="パス_1006" data-name="パス 1006" d="M38.6,8.413S38.961.984,48.27,0A12.735,12.735,0,0,1,38.6,8.413" transform="translate(0 0.001)" fill="#e8e8e8"/>
      </g>
      <g id="グループ_2908" data-name="グループ 2908" transform="translate(594.547 5735.027)">
        <path id="パス_1007" data-name="パス 1007" d="M193.727,150.55s12.218-6.82,7.388-26c0,0-9.945,9.519-7.388,26" transform="translate(-193.307 0.001)" fill="#e8e8e8"/>
        <path id="パス_1008" data-name="パス 1008" d="M193.307,158.791s13.775-12.076,29.972-7.388c0,0-12.491,16.2-29.972,7.388" transform="translate(-193.307 0.001)" fill="#e8e8e8"/>
        <path id="パス_1009" data-name="パス 1009" d="M210.6,130.867s11.111-8.506,3.572-26.792c0,0-8.473,10.851-3.572,26.792" transform="translate(-193.307 0.001)" fill="#e8e8e8"/>
        <path id="パス_1010" data-name="パス 1010" d="M211.364,139.082s11.9-13.932,28.6-11.621c0,0-10.032,17.824-28.6,11.621" transform="translate(-193.307 0.001)" fill="#e8e8e8"/>
        <path id="パス_1011" data-name="パス 1011" d="M224.108,108.83s7.732-11.663-5.355-26.493c0,0-4.474,13.019,5.355,26.493" transform="translate(-193.307 0.001)" fill="#e8e8e8"/>
        <path id="パス_1012" data-name="パス 1012" d="M227.512,116.346S234.217,99.3,250.76,96.039c0,0-3.674,20.12-23.248,20.307" transform="translate(-193.307 0.001)" fill="#e8e8e8"/>
        <path id="パス_1013" data-name="パス 1013" d="M231.217,86.245s3.489-11.54-10.985-20.533c0,0-.465,11.851,10.985,20.533" transform="translate(-193.307 0.001)" fill="#e8e8e8"/>
        <path id="パス_1014" data-name="パス 1014" d="M235.889,91.6s1.308-15.729,14.15-22.519c0,0,1.955,17.514-14.15,22.519" transform="translate(-193.307 0.001)" fill="#e8e8e8"/>
        <path id="パス_1015" data-name="パス 1015" d="M232.094,64.31S233.17,53.52,218.836,48.1c0,0,1.646,10.541,13.258,16.215" transform="translate(-193.307 0.001)" fill="#e8e8e8"/>
        <path id="パス_1016" data-name="パス 1016" d="M237.147,68.227s-1.576-14.108,8.579-22.329c0,0,4.765,15.116-8.579,22.329" transform="translate(-193.307 0.001)" fill="#e8e8e8"/>
        <path id="パス_1017" data-name="パス 1017" d="M227.91,46.026s-.694-10.289-15-13.113c0,0,3.209,9.625,15,13.113" transform="translate(-193.307 0.001)" fill="#e8e8e8"/>
        <path id="パス_1018" data-name="パス 1018" d="M233.268,48.9s-3.706-12.982,4.52-22.3c0,0,6.856,13.424-4.52,22.3" transform="translate(-193.307 0.001)" fill="#e8e8e8"/>
        <path id="パス_1019" data-name="パス 1019" d="M224.117,29.031s-3.223-7.886-15.171-6.376a18.644,18.644,0,0,0,15.171,6.376" transform="translate(-193.307 0.001)" fill="#e8e8e8"/>
        <path id="パス_1020" data-name="パス 1020" d="M229.066,29.891s-6.286-9.213-2.262-18.657c0,0,8.871,8.739,2.262,18.657" transform="translate(-193.307 0.001)" fill="#e8e8e8"/>
        <path id="パス_1021" data-name="パス 1021" d="M215.569,16.92s-3.386-6.805-14.327-4.944c0,0,4.983,5.69,14.327,4.944" transform="translate(-193.307 0.001)" fill="#e8e8e8"/>
        <path id="パス_1022" data-name="パス 1022" d="M220.179,17.458s-6.281-7.839-3.063-16.34c0,0,8.64,7.307,3.063,16.34" transform="translate(-193.307 0.001)" fill="#e8e8e8"/>
        <path id="パス_1023" data-name="パス 1023" d="M212.157,8.413S211.8.984,202.49,0a12.735,12.735,0,0,0,9.667,8.414" transform="translate(-193.307 0.001)" fill="#e8e8e8"/>
      </g>
    </g>
    <path id="パス_104266" data-name="パス 104266" d="M-94.354-12.74a41.2,41.2,0,0,1-.728,6.4c-.494,2.08-1.014,2.236-1.82,2.262-.936.026-1.872,0-2.886-.052l1.534,3.64c.182.416.208.468.884.468,4.706,0,5.46-1.56,6.266-4.992A79.49,79.49,0,0,0-89.986-16.2l-.182-.234-3.2.078h-4.342c.078-1.2.1-2.522.1-3.978l-.182-.182h-3.9l-.182.208c0,1.482-.052,2.782-.1,3.952h-2.834l-3.64-.078-.234.156v3.406l.182.208,3.718-.078h2.392A14.242,14.242,0,0,1-103.766-8.5c-1.534,2.912-3.874,4.836-7.28,6.526l2.938,2.184c.26.182.364.26.494.26a.721.721,0,0,0,.312-.13,17.376,17.376,0,0,0,7.41-7.28,17.265,17.265,0,0,0,1.82-5.8Zm33.2,5.2.182-.208V-11.44l-.208-.182-4,.078h-11.6l-3.718-.078-.234.156v3.718l.182.208,3.874-.078h11.622Zm10.452-9.2-.234.156V-13.1l.182.208,3.562-.078h9.022v6.968H-47.5l-3.276-.078-.234.156v3.484l.182.208,3.432-.078h9.906l3.588.078.182-.208L-33.8-5.8v-7.644l.078-3.146-.234-.156-3.666.078h-9.672Zm46.748,9.2.182-.208V-11.44l-.208-.182-4,.078h-11.6l-3.718-.078-.234.156v3.718l.182.208,3.874-.078H-7.852ZM13.364-10.5c-.338,4.732-3.042,7.774-7.15,9.334L9.516.884a1.081,1.081,0,0,0,.546.26A1,1,0,0,0,10.5.988a15.885,15.885,0,0,0,2.938-2.106A13.935,13.935,0,0,0,17.628-10.5h3.614l3.692.078.182-.208v-3.3l-.208-.182-3.666.078H8.97L5.1-14.118l-.208.182v3.3l.182.208L9-10.5Zm8.788-5.668.182-.208v-3.328l-.208-.182-3.536.078H11.206l-3.2-.078-.234.156v3.354l.182.208,3.458-.078h7.2Zm22.984,6.136c1.118-.962,2.366-2.08,3.718-3.458l-.026-.234L46.046-15.7l-.26.026a34.957,34.957,0,0,1-12.142,9l2.47,2.132c.286.26.338.286.728.1A50.629,50.629,0,0,0,41.47-7.332V-5.07l-.1,5.8H45.24l-.1-5.928Zm16.38-4.888a30.457,30.457,0,0,1,5.1,3.9l.234-.026,2.7-3.146v-.26a27.523,27.523,0,0,0-5.278-3.588l-.26.052L61.49-15.158ZM80.21-17.082A47.089,47.089,0,0,1,61.8-3.848l-.052.26,2.34,3.51.26.052A50.815,50.815,0,0,0,81.484-12.038c.182-.182.26-.286.26-.468a1.4,1.4,0,0,0-.1-.494Zm25.48-2.262a16.424,16.424,0,0,1,2.574,2.808h.26l1.43-1.014.026-.26a16.674,16.674,0,0,0-2.652-2.756l-.26.026-1.352.962Zm2.444-1.638a15.646,15.646,0,0,1,2.548,2.7h.26l1.352-.988.026-.26a15.731,15.731,0,0,0-2.574-2.678l-.26.026-1.326.962ZM103.3-13.988a23.489,23.489,0,0,1-14.17,12.35l3.224,2.5a.672.672,0,0,0,.442.208A2.253,2.253,0,0,0,93.47.858c7.384-3.38,11.6-8.19,14.872-15.236a1.378,1.378,0,0,0,.156-.52c0-.182-.13-.338-.364-.546l-2.262-2.106-1.976.156-3.328.052c.39-.624.728-1.222,1.066-1.872l-.052-.26-3.718-1.378-.234.078A26.34,26.34,0,0,1,89.024-10.3l3.094,1.872a.922.922,0,0,0,.416.156c.182,0,.338-.1.624-.312a30.9,30.9,0,0,0,5.174-5.382ZM-51.064,21.39v-2.6h2.028l3.874.078.182-.156V15.67l-.13-.182-3.926.078h-2.028V11.9l-.182-.182H-54.6l-.182.182v3.666h-1.43l-3.874-.078-.182.182v3.016l.182.182,3.874-.078h1.43v2.6h-1.17l-3.406-.052-.182.182v2.938l.182.182,3.406-.052h5.46a10.842,10.842,0,0,1-2.288,4.134,11.833,11.833,0,0,1-2.34-3.666l-.26-.13-2.834,1.014-.13.26a19.941,19.941,0,0,0,2.782,4.758,23.758,23.758,0,0,1-6.89,2.392l1.9,2.808c.156.234.234.312.572.234a24.381,24.381,0,0,0,7.124-2.964,17.931,17.931,0,0,0,6.032,2.652,2.731,2.731,0,0,0,.338.052c.156,0,.234-.078.338-.234l1.768-3.068a18.7,18.7,0,0,1-5.564-1.95,19.326,19.326,0,0,0,3.718-7.358,1.754,1.754,0,0,0,.078-.442.437.437,0,0,0-.182-.39l-1.56-1.43L-50,21.39Zm-15.444-1.508v4.134c-1.04.286-2.106.52-3.146.754l-.13.234,1.04,3.042.234.13c.676-.208,1.352-.416,2-.65v4.628c0,.624-.156.78-.7.832a18.847,18.847,0,0,1-2.106.1l1.456,3.25c.1.26.182.312.494.312,3.3,0,4.446-.78,4.446-3.8l-.13-5.8V26.3c.78-.286,1.456-.572,2.028-.832.442-.208.546-.338.546-.806v-2.6c-.806.312-1.664.624-2.574.91V19.908l2.21.052.156-.13V16.944l-.156-.13-2.21.052V11.9l-.234-.182H-66.3l-.208.208v4.966l-2.782-.078-.156.156V19.8l.182.156Zm39.364-2.834V12.186L-27.326,12h-2.886l-.182.182v4.862h-.754l-2.5-.078-.156.156v2.756l.182.156,2.47-.078h.754v7.514l-.13,9.1h3.51l-.13-9.1V19.96h.7l2.574.078.156-.13V17.1l-.156-.13-2.574.078Zm5.616,5.98V32.44c0,.624-.156.78-.7.832a17.89,17.89,0,0,1-1.95.1l1.2,2.886c.1.26.156.312.676.312,3.328,0,4.16-.65,4.16-3.718l-.1-5.668v-4.16l1.872.052.156-.13V20.142l-.156-.13-2.574.078H-21.06l-2.5-.078-.156.156v2.756l.182.156Zm-13.884-.312a27.847,27.847,0,0,0,1.56-3.068l-.078-.234L-36.5,17.906l-.26.026a19.922,19.922,0,0,1-4.55,6.864l1.066,3.172c.052.182.156.286.286.286a.572.572,0,0,0,.312-.156,11.087,11.087,0,0,0,1.092-1.274v3.068l-.13,6.708h3.276Zm9.49,9.178,2.6-.338.156-.208c-.1-3.016-.39-5.85-.754-8.71l-.156-.182-2.444.156-.182.208c.338,2.886.52,5.876.6,8.918ZM-20.67,16.45h1.9l2.054.078.156-.13V13.59l-.156-.13-2.314.078H-20.67l-2.236-.078-.156.156v2.756l.052.156ZM-36.66,11.8a14.094,14.094,0,0,1-4.524,4.5l1.716,2.626c.13.182.208.286.312.286.052,0,.13-.052.26-.156a20.279,20.279,0,0,0,5.018-5.408l-.078-.234L-36.4,11.77ZM-23.14,15.2l.026-.26a10.345,10.345,0,0,0-2.028-2.106h-.234l-1.664,1.326-.052.234a13.293,13.293,0,0,1,1.9,2.34l.234.026Zm-8.112,7.358h-2.34l-.208.182V23.7c0,3.848-.494,6.6-1.456,8.658l2.262,1.482a.548.548,0,0,0,.286.13c.078,0,.13-.052.182-.182,1.144-2.652,1.508-6.864,1.508-9.958V22.742ZM6.24,25.238c.1.26.208.338.546.338,2.288-.026,3.094-.286,3.8-1.17.728-.884.936-3.458,1.014-11.388l-.156-.156-2.782.052H1.326l-3.3-.078-.156.182V15.8l.182.13,3.276-.078H2.08a15.328,15.328,0,0,1-.156,1.534c-.52-.234-1.04-.468-1.612-.7l-.338.052-1.508,2.08.1.286c.832.364,1.638.754,2.418,1.144A7.812,7.812,0,0,1-3.25,23.652l2,2.132a.5.5,0,0,0,.364.182.9.9,0,0,0,.338-.078,10.181,10.181,0,0,0,4.5-3.952c.442.286.858.6,1.274.91Zm1.768-9.386c-.026,4.264-.234,5.616-.39,6.006a.827.827,0,0,1-.806.468c-.338.026-.676.052-1.092.078l1.43-1.976-.052-.26a18.857,18.857,0,0,0-1.924-1.2,15.832,15.832,0,0,0,.442-3.12ZM-6.656,34.91v1.118h3.172l-.052-2.288,2.34.78.26-.1A22.906,22.906,0,0,0,.156,29.242l-.13-.312-2.34-.494-.286.182A16.732,16.732,0,0,1-3.536,32.7l-.026-.962V30.36l.078-2.6-.182-.182-3.224.078H-8.372l-2.99-.078-.156.182.078,2.6v1.3l-.13,4.68h3.12V34.91Zm0-2.6H-8.45V30.256h1.794ZM-9.23,19.232h3.458l3.094.078.156-.13V16.4l-.156-.13-3.094.078H-9.23l-3.016-.078-.156.156v2.73l.182.156Zm.936-3.874H-6.5l2.7.078.156-.13v-2.6l-.156-.13-2.7.078H-8.294l-2.7-.078-.156.156V15.28l.182.156Zm0,7.566h1.586L-4,23l.156-.13v-2.6L-4,20.142l-2.7.078H-8.294l-2.7-.078-.156.156v2.548l.182.156Zm0,3.692h1.586l2.7.078.156-.13v-2.6L-4,23.834l-2.7.078H-8.294l-2.7-.078-.156.156v2.548l.182.156ZM3.9,27.838,3.666,27.6H.832l-.208.208v4.16L.572,34.156c0,1.794.546,2.106,3.666,2.106,3.2,0,3.588-.312,4.16-.806a4.318,4.318,0,0,0,.936-2.782c.026-.338-.13-.494-.468-.6l-2.6-.884c-.182,1.976-.338,2.08-1.508,2.08-.832,0-.858-.026-.858-.468ZM7.748,29.4l-.078.234a17,17,0,0,1,2.21,4.056l.26.078,2.626-1.56.078-.234A14.391,14.391,0,0,0,10.4,28.15l-.26-.026Zm-.026-1.664.052-.26a11.476,11.476,0,0,0-2.652-2.808l-.286.026-2.08,1.326-.052.26A12.785,12.785,0,0,1,5.2,29.32l.234.026Zm19.266,3.9A7.718,7.718,0,0,1,24,29.658,20.346,20.346,0,0,0,24.96,24.9l-.208-.208-3.224-.6-.234.156c-.234,4.212-1.586,7.332-5.018,9.984l2.548,2a.653.653,0,0,0,.442.182.672.672,0,0,0,.442-.208,12.5,12.5,0,0,0,2.964-3.536,9.422,9.422,0,0,0,4.576,2.548,26.283,26.283,0,0,0,5.07.6c2.028.026,4.446.026,6.6-.078.286-.026.364-.026.468-.26L40.846,32c-3.276.26-5.642.312-7.566.312-.936,0-1.794-.026-2.548-.052v-3.9h2.7l3.432.078L37,28.28V25.238l-.208-.156-3.354.078h-2.7V22.326H32.11l3.432.078.13-.156V19.31l-.208-.156-3.354.078H25.116l-3.432-.078-.156.182v2.938l.182.13,3.406-.078h1.872Zm-.39-17.16h-4.94L17.42,14.4l-.234.182.078,2.21v.78l-.13,3.38H20.9V17.594H36.322v3.354h3.77l-.13-3.64v-.754l.078-1.976-.208-.182-3.614.078H30.446v-2.6l-.182-.182H26.78l-.182.182Zm36.738,20.67v1.144h3.848l-.13-4.914v-1.95l.078-2.964-.182-.182-3.718.078H60.424v-2.6h4.628l3.146.078.182-.182V20.688l-.156-.13-3.172.078H60.424V18.374l-.156-.156H56.81l-.13.156v7.982h-1.4l-3.744-.078-.182.182.078,2.964v2.34l-.13,4.784h3.744v-1.4Zm0-3.042H55.042V29.346h8.294ZM55.978,14.526H51.142l-4.316-.078-.182.182.078,4.238v4.446c0,4.94-.676,7.592-2.314,10.582l2.418,2.262a.449.449,0,0,0,.312.156c.1,0,.182-.052.286-.208,2-3.016,2.964-6.864,2.964-12.844V17.646h14.3L69,17.724l.182-.182V14.63L69,14.448l-4.316.078H59.826V11.874l-.182-.182H56.16l-.182.182Z" transform="translate(188 6542.982)" fill="#c51726"/>
    <g id="グループ_3725" data-name="グループ 3725" transform="translate(-496.18 1415.602)">
      <path id="合体_49" data-name="合体 49" d="M15.86,20.16V0l6.2,9.683,9.661-7.752L28.98,20.16Zm-13.119,0L0,1.932,9.661,9.683,15.86,0V20.16Z" transform="translate(666.82 5042.824)"/>
      <g id="グループ_2909" data-name="グループ 2909" transform="translate(662.923 5065.812)">
        <path id="パス_14" data-name="パス 14" d="M2617.638,696.291a11.415,11.415,0,0,0-18.958-8.24,1.2,1.2,0,0,1-1.588,0,11.422,11.422,0,1,0,0,17.142,1.2,1.2,0,0,1,1.592,0,11.415,11.415,0,0,0,18.956-8.9Zm-28.087,5.165a4.835,4.835,0,1,1,4.835-4.835A4.835,4.835,0,0,1,2589.551,701.455Zm16.67,0a4.835,4.835,0,1,1,4.834-4.835A4.834,4.834,0,0,1,2606.221,701.455Z" transform="translate(-2578.13 -685.199)"/>
        <path id="パス_15" data-name="パス 15" d="M2628.218,730.454a4.835,4.835,0,1,0,4.835,4.835A4.835,4.835,0,0,0,2628.218,730.454Zm.167,7.556a2.721,2.721,0,1,1,2.721-2.721A2.721,2.721,0,0,1,2628.385,738.01Z" transform="translate(-2616.796 -723.867)" fill="#fff"/>
        <path id="パス_16" data-name="パス 16" d="M2742.754,730.454a4.835,4.835,0,1,0,4.835,4.835A4.835,4.835,0,0,0,2742.754,730.454Zm0,7.556a2.721,2.721,0,1,1,2.721-2.721A2.721,2.721,0,0,1,2742.754,738.01Z" transform="translate(-2714.662 -723.867)" fill="#fff"/>
        <ellipse id="楕円形_1" data-name="楕円形 1" cx="2.721" cy="2.721" rx="2.721" ry="2.721" transform="translate(7.769 11.892) rotate(-52.018)"/>
        <ellipse id="楕円形_2" data-name="楕円形 2" cx="2.721" cy="2.721" rx="2.721" ry="2.721" transform="translate(25.371 8.7)"/>
      </g>
    </g>
    <path id="パス_104267" data-name="パス 104267" d="M-70.98-3.29c.294,2.282,1.75,3.444,4.326,3.444,2.464,0,3.934-1.3,3.934-3.332,0-1.792-.98-2.66-3.3-3.4-1.568-.5-2.086-.9-2.086-1.638A1.026,1.026,0,0,1-67-9.338c.924,0,1.442.686,1.54,2l2.492-.518c-.308-2.086-1.68-3.206-3.92-3.206-2.212,0-3.668,1.232-3.668,3.29,0,1.666,1.022,2.632,3.01,3.332,1.722.6,2.2.91,2.2,1.694A1.01,1.01,0,0,1-66.5-1.708c-1.162,0-1.722-.672-1.9-1.9Zm10.5,0c.294,2.282,1.75,3.444,4.326,3.444,2.464,0,3.934-1.3,3.934-3.332,0-1.792-.98-2.66-3.3-3.4-1.568-.5-2.086-.9-2.086-1.638A1.026,1.026,0,0,1-56.5-9.338c.924,0,1.442.686,1.54,2l2.492-.518c-.308-2.086-1.68-3.206-3.92-3.206-2.212,0-3.668,1.232-3.668,3.29,0,1.666,1.022,2.632,3.01,3.332,1.722.6,2.2.91,2.2,1.694A1.01,1.01,0,0,1-56-1.708c-1.162,0-1.722-.672-1.9-1.9ZM-39.368-.322l1.652-1.54.014-.154a29.576,29.576,0,0,0-3.542-3.346A28.59,28.59,0,0,0-39.312-8.6a.773.773,0,0,0,.126-.336c0-.084-.056-.154-.154-.252l-.854-.84-1.428.07h-3.962l-2.1-.042-.126.084v1.9l.1.112,2.086-.042h3.332c-1.288,2.912-4.1,5.026-7.322,6.524L-47.964-.14a.4.4,0,0,0,.224.1.743.743,0,0,0,.308-.1,16.538,16.538,0,0,0,4.8-3.514A25.206,25.206,0,0,1-39.522-.336ZM-24.15-9.66l-1.148.084-1.918.028c.168-.294.336-.588.49-.9l-.028-.154-1.9-.686-.14.042A15.175,15.175,0,0,1-33.334-5.5l1.526.98c.252.168.322.182.588-.014A21.17,21.17,0,0,0-28.364-7.77l2.716-.014a11.811,11.811,0,0,1-1.246,2.2c-.476-.322-.98-.63-1.5-.938l-.154.014-1.19,1.3v.14A18,18,0,0,1-28.168-3.99a16.828,16.828,0,0,1-5.39,3.528L-31.92.658A.561.561,0,0,0-31.6.8a.618.618,0,0,0,.266-.1,17.336,17.336,0,0,0,4.718-3.346c.42.406.826.812,1.232,1.26l.126-.014L-23.9-2.912v-.154A18.006,18.006,0,0,0-25.228-4.3a21.951,21.951,0,0,0,2.212-3.808.525.525,0,0,0,.07-.238c0-.084-.056-.14-.154-.252ZM-15.47-7.1l-1.47.644L-17-6.342a8.719,8.719,0,0,1,1.232,2.31l.126.042,1.512-.7.056-.126A8.584,8.584,0,0,0-15.344-7.1Zm2.59-.756-1.47.644-.042.112a9.48,9.48,0,0,1,1.26,2.254l.126.028,1.484-.7.056-.126a7.384,7.384,0,0,0-1.288-2.184Zm4.326.812-1.708-.63-.126.056a9.784,9.784,0,0,1-1.82,4.284,9.135,9.135,0,0,1-3.57,2.856l1.484.966a.369.369,0,0,0,.21.084A.5.5,0,0,0-13.86.49a10.047,10.047,0,0,0,3.43-3.038A12.579,12.579,0,0,0-8.484-6.916ZM-1.96-9.9v1.932l.126.084L.308-7.924H5.054A8.239,8.239,0,0,1,3.29-4.27a10.485,10.485,0,0,1-5.1,3.15L-.1.252C.042.364.112.406.2.406A.692.692,0,0,0,.462.322,11.99,11.99,0,0,0,5.278-3.094,11.981,11.981,0,0,0,7.77-9.856l-.112-.1H.28L-1.848-10ZM19.166-5.46h.546l2.184.042.1-.1v-.826q.525.378,1.092.714a.532.532,0,0,0,.252.084c.126,0,.238-.07.392-.238l1.3-1.428A21.02,21.02,0,0,1,19.18-11.1c.07-.1.14-.21.21-.308l-.042-.14L17.4-12.068l-.154.042a15.493,15.493,0,0,1-5.894,5.264l1.372,1.218a.374.374,0,0,0,.238.112.684.684,0,0,0,.322-.112c.392-.238.784-.476,1.148-.728v.77l.1.1,2.184-.056h.406v1.47h-.98l-2.3-.042-.126.07v1.568l.1.1,2.324-.042h.98V-.756h-2.7L12.124-.8,12-.728v1.6l.1.1L14.42.924h7.546L24.29.966l.1-.1V-.7l-.1-.1-2.324.042h-2.8V-2.338h1.26L22.75-2.3l.1-.1v-1.54l-.1-.1-2.324.042h-1.26Zm.546-1.666h-3l-1.134-.028A18.95,18.95,0,0,0,18.116-9.7a22.744,22.744,0,0,0,2.772,2.548Zm11.13,2.1v-.42a13.524,13.524,0,0,0,1.876-3.332.494.494,0,0,0,.042-.2.383.383,0,0,0-.1-.252L31.92-9.94l-.854.042h-.224v-2.016l-.084-.112H29.05l-.1.1V-9.9L27.286-9.94l-.084.084v1.624l.084.112,1.708-.028h1.358A11.226,11.226,0,0,1,26.8-4.088L27.734-2.7a.244.244,0,0,0,.2.126.448.448,0,0,0,.238-.112,9.064,9.064,0,0,0,.784-.7V-2.03l-.07,3.444h2.03l-.07-3.444V-3.906a10.3,10.3,0,0,1,.98,1.2L32-2.688,33.18-3.864,33.194-4a10.46,10.46,0,0,0-1.708-1.484L31.318-5.5Zm6.076-2.52v-4.228l-.1-.1H35.028l-.1.112v4.214h-.616l-1.848-.042-.084.084v1.652l.1.084,1.834-.042h.616V-.938h-1.3L31.78-.98,31.7-.91V.756l.1.084L33.628.8h4.648L39.97.84l.1-.1V-.91l-.084-.07-1.708.042H36.918V-5.81h.812l1.848.042.084-.07v-1.68l-.084-.07-1.848.042Zm17.094,6.8.1-.1-.042-2.324V-5.516l.042-1.806-.1-.1-2.086.042H46.06L43.974-7.42l-.1.1.042,1.806v2.352L43.876-.84l.1.1,2.1-.042a17.43,17.43,0,0,1-3.822.658l.826,1.358c.07.112.1.14.336.112A14.671,14.671,0,0,0,48.16.1V-.056l-.994-.728h3.458L49.77.084,49.8.2a23.008,23.008,0,0,1,4.7,1.218l.168-.042L55.706.07l-.028-.14a31.168,31.168,0,0,0-3.164-.7ZM45.864-2.66h6.188v.532H45.864Zm0-1.148V-4.34h6.188v.532Zm0-1.68v-.546h6.188v.546Zm1.008-2.436H51.1l2.086.042.1-.1-.042-1.5v-.812l.042-1.162-.1-.1-2.086.042H46.872l-2.086-.042-.1.1.042,1.176v.868L44.688-7.98l.1.1Zm-.266-1.4v-.784h4.7v.784Zm22.33-2.212a8.425,8.425,0,0,1,1.372,1.456h.14l.728-.532.014-.14A8.47,8.47,0,0,0,69.8-12.194l-.14.014-.714.518Zm-1.316.882a8.844,8.844,0,0,1,1.386,1.512h.14l.77-.546.014-.14A8.978,8.978,0,0,0,68.5-11.312l-.14.014-.728.518ZM58.52.322l1.848.462.154-.042c.77-2.716,1.47-4.886,2.408-7.546.35-.028.672-.056.924-.056.616,0,.714.168.714,1.008a15.512,15.512,0,0,1-.5,3.654c-.21.658-.406.742-.854.742a4.89,4.89,0,0,1-1.4-.308L61.978.224c.014.2.056.224.154.252a6.651,6.651,0,0,0,1.722.252c.742,0,1.666-.336,2.17-1.918a16.746,16.746,0,0,0,.644-4.788c.014-2.044-1.078-2.758-2.24-2.758-.266,0-.532.014-.812.028q.357-1.029.8-2.226l-.042-.154-1.89-.462-.14.07c-.364,1.078-.686,2.072-1.022,3.038-.966.14-2,.266-3.108.35l-.084.1L58.436-6.3l.112.084c.7-.084,1.456-.182,2.1-.28-.714,2.142-1.414,4.27-2.17,6.706Zm8.274-8.386A13.147,13.147,0,0,1,69.2-3.612l.126.028,1.75-1.008.056-.14a13.845,13.845,0,0,0-2.688-4.41h-.14L66.822-8.2Zm-200.1,25.2a22.186,22.186,0,0,1-.392,3.444c-.266,1.12-.546,1.2-.98,1.218-.5.014-1.008,0-1.554-.028l.826,1.96c.1.224.112.252.476.252,2.534,0,2.94-.84,3.374-2.688a42.8,42.8,0,0,0,.6-6.02l-.1-.126-1.722.042h-2.338c.042-.644.056-1.358.056-2.142l-.1-.1h-2.1l-.1.112c0,.8-.028,1.5-.056,2.128h-1.526l-1.96-.042-.126.084V17.07l.1.112,2-.042h1.288a7.669,7.669,0,0,1-.742,2.282,8.148,8.148,0,0,1-3.92,3.514l1.582,1.176c.14.1.2.14.266.14a.388.388,0,0,0,.168-.07,9.356,9.356,0,0,0,3.99-3.92,9.3,9.3,0,0,0,.98-3.122Zm17.878,2.8.1-.112V17.84l-.112-.1-2.156.042h-6.244l-2-.042-.126.084v2l.1.112,2.086-.042h6.258Zm5.628-4.956-.126.084v1.876l.1.112,1.918-.042h4.858v3.752h-5.026l-1.764-.042-.126.084v1.876l.1.112,1.848-.042h5.334l1.932.042.1-.112-.042-1.806V16.762l.042-1.694-.126-.084-1.974.042h-5.208ZM-84.63,19.94l.1-.112V17.84l-.112-.1-2.156.042h-6.244l-2-.042-.126.084v2l.1.112,2.086-.042h6.258Zm9.324-1.6a5.538,5.538,0,0,1-3.85,5.026l1.778,1.106a.582.582,0,0,0,.294.14.538.538,0,0,0,.238-.084A8.554,8.554,0,0,0-75.264,23.4a7.5,7.5,0,0,0,2.254-5.054h1.946l1.988.042.1-.112V16.5l-.112-.1-1.974.042h-6.608l-2.086-.042-.112.1v1.778l.1.112,2.114-.042Zm4.732-3.052.1-.112V13.388l-.112-.1-1.9.042h-3.976l-1.722-.042-.126.084V15.18l.1.112,1.862-.042h3.878ZM-58.2,18.6c.6-.518,1.274-1.12,2-1.862l-.014-.126-1.5-1.064-.14.014A18.823,18.823,0,0,1-64.386,20.4l1.33,1.148c.154.14.182.154.392.056a27.262,27.262,0,0,0,2.492-1.554V21.27l-.056,3.122h2.086L-58.2,21.2Zm8.82-2.632a16.4,16.4,0,0,1,2.744,2.1l.126-.014,1.456-1.694v-.14a14.82,14.82,0,0,0-2.842-1.932l-.14.028-1.358,1.526ZM-39.312,14.8a25.356,25.356,0,0,1-9.912,7.126l-.028.14,1.26,1.89.14.028a27.362,27.362,0,0,0,9.226-6.468c.1-.1.14-.154.14-.252A.751.751,0,0,0-38.542,17Zm13.72-1.218A8.844,8.844,0,0,1-24.206,15.1h.14l.77-.546.014-.14a8.978,8.978,0,0,0-1.428-1.484l-.14.014-.728.518Zm1.316-.882A8.425,8.425,0,0,1-22.9,14.158h.14l.728-.532.014-.14a8.47,8.47,0,0,0-1.386-1.442l-.14.014-.714.518Zm-2.6,3.766a12.648,12.648,0,0,1-7.63,6.65l1.736,1.344a.362.362,0,0,0,.238.112,1.213,1.213,0,0,0,.364-.112,15.347,15.347,0,0,0,8.008-8.2.742.742,0,0,0,.084-.28c0-.1-.07-.182-.2-.294l-1.218-1.134-1.064.084-1.792.028c.21-.336.392-.658.574-1.008l-.028-.14-2-.742-.126.042a14.183,14.183,0,0,1-4.634,5.642l1.666,1.008a.5.5,0,0,0,.224.084c.1,0,.182-.056.336-.168a16.637,16.637,0,0,0,2.786-2.9Zm16.9,1.092V15.768l-.084-.1H-11.55l-.1.1v2.226l-.7.2V16.65l-.112-.1h-.924c.252-.406.5-.812.714-1.232h3.654l1.89.042.112-.1V13.71l-.112-.1-1.89.042h-2.926c.112-.322.21-.644.308-.98l-.042-.14L-13.356,12l-.126.056a9.286,9.286,0,0,1-1.5,3.528V14.494l-.084-.07-1.568.042v-2.3l-.1-.1h-1.61l-.1.1v2.3l-1.652-.042-.084.084v1.6l.1.084.966-.028v.784c0,3.584-.252,5.166-1.372,7.21l1.246,1.036a.252.252,0,0,0,.126.056c.042,0,.07-.028.112-.084a10.812,10.812,0,0,0,.784-1.624l.5,1.484a.235.235,0,0,0,.266.182c1.008,0,1.442-.2,1.75-.588.6-.756.63-2.492.658-7.28l-.084-.084-1.19.028h-1.05V16.146h.588l1.344.028c-.112.154-.238.294-.364.448l1.176.994a.483.483,0,0,0,.238.126c.056,0,.112-.042.182-.126l.084-.1v1.12l-.868.224-.056.112L-14.7,20.4l.1.028.49-.14v.854l-.042,2.478c0,1.218.252,1.512,2.856,1.512,2.7,0,3.318-.084,3.836-.518a2.3,2.3,0,0,0,.7-1.652c.028-.168-.042-.238-.2-.308l-1.456-.672a1.2,1.2,0,0,0,.5-.364c.42-.5.476-1.106.448-4.676l-.1-.07-1.708.49Zm0,3.15.392,1.232c.042.126.1.168.252.168A2.511,2.511,0,0,0-8.47,22c-.056.784-.154,1.064-.392,1.26s-.742.224-2.478.224c-.938,0-1.008-.07-1.008-.434V19.772l.7-.2v.994l-.07,2.268h1.806Zm0-1.61.812-.224a6.286,6.286,0,0,1-.084,1.456c-.042.112-.1.154-.252.168-.126.014-.322.028-.476.028Zm-6.818-.154a16.124,16.124,0,0,1-.308,4.158c-.1.182-.2.2-.434.224a2.787,2.787,0,0,1-.6.014,15.074,15.074,0,0,0,.742-4.4ZM2.87,15.488H4.76l2.31.042.1-.1v-1.68l-.1-.1L4.76,13.7H-1.106l-2.324-.042-.1.1v1.68l.1.1,2.324-.042H.7V22.04H-2.338L-4.662,22l-.1.1v1.68l.1.1,2.324-.042H6.034l2.31.042.1-.1V22.1l-.1-.1-2.31.042H2.87ZM20.552,17.21v-1.4h1.092l2.086.042.1-.084V14.13l-.07-.1-2.114.042H20.552V12.1l-.1-.1H18.648l-.1.1v1.974h-.77l-2.086-.042-.1.1v1.624l.1.1,2.086-.042h.77v1.4h-.63l-1.834-.028-.1.1v1.582l.1.1,1.834-.028h2.94a5.838,5.838,0,0,1-1.232,2.226,6.371,6.371,0,0,1-1.26-1.974l-.14-.07L16.7,19.66l-.07.14a10.738,10.738,0,0,0,1.5,2.562,12.793,12.793,0,0,1-3.71,1.288l1.022,1.512c.084.126.126.168.308.126a13.128,13.128,0,0,0,3.836-1.6,9.655,9.655,0,0,0,3.248,1.428,1.471,1.471,0,0,0,.182.028c.084,0,.126-.042.182-.126l.952-1.652a10.069,10.069,0,0,1-3-1.05,10.407,10.407,0,0,0,2-3.962.944.944,0,0,0,.042-.238.236.236,0,0,0-.1-.21l-.84-.77-1.134.07ZM12.236,16.4v2.226c-.56.154-1.134.28-1.694.406l-.07.126.56,1.638.126.07c.364-.112.728-.224,1.078-.35v2.492c0,.336-.084.42-.378.448a10.148,10.148,0,0,1-1.134.056l.784,1.75c.056.14.1.168.266.168,1.778,0,2.394-.42,2.394-2.044l-.07-3.122v-.406c.42-.154.784-.308,1.092-.448.238-.112.294-.182.294-.434v-1.4c-.434.168-.9.336-1.386.49V16.412l1.19.028.084-.07V14.816l-.084-.07-1.19.028V12.1l-.126-.1H12.348l-.112.112v2.674l-1.5-.042-.084.084v1.526l.1.084Zm21.2-1.526V12.254l-.1-.1H31.78l-.1.1v2.618h-.406l-1.344-.042-.084.084V16.4l.1.084,1.33-.042h.406v4.046l-.07,4.9H33.5l-.07-4.9V16.44h.378l1.386.042.084-.07V14.9l-.084-.07-1.386.042Zm3.024,3.22V23.16c0,.336-.084.42-.378.448a9.633,9.633,0,0,1-1.05.056l.644,1.554c.056.14.084.168.364.168,1.792,0,2.24-.35,2.24-2l-.056-3.052v-2.24l1.008.028.084-.07V16.538l-.084-.07-1.386.042H36.708l-1.344-.042-.084.084v1.484l.1.084Zm-7.476-.168a15,15,0,0,0,.84-1.652l-.042-.126-1.386-.812-.14.014a10.727,10.727,0,0,1-2.45,3.7l.574,1.708c.028.1.084.154.154.154a.308.308,0,0,0,.168-.084,5.97,5.97,0,0,0,.588-.686v1.652l-.07,3.612H28.98Zm5.11,4.942,1.4-.182.084-.112c-.056-1.624-.21-3.15-.406-4.69l-.084-.1-1.316.084-.1.112c.182,1.554.28,3.164.322,4.8Zm2.828-8.316H37.94l1.106.042.084-.07V13.01l-.084-.07-1.246.042h-.882l-1.2-.042-.084.084v1.484l.028.084Zm-8.61-2.506a7.589,7.589,0,0,1-2.436,2.422L26.8,15.88c.07.1.112.154.168.154.028,0,.07-.028.14-.084a10.92,10.92,0,0,0,2.7-2.912l-.042-.126-1.316-.882Zm7.28,1.834.014-.14A5.571,5.571,0,0,0,34.51,12.6h-.126l-.9.714-.028.126a7.158,7.158,0,0,1,1.022,1.26l.126.014ZM31.22,17.84H29.96l-.112.1v.518a11.023,11.023,0,0,1-.784,4.662l1.218.8a.3.3,0,0,0,.154.07c.042,0,.07-.028.1-.1a15.321,15.321,0,0,0,.812-5.362v-.588Zm17.738,6.622a.457.457,0,0,0,.448.14c2.968-.7,4.76-2.632,4.76-5.18,0-3.108-2.044-5.67-5.866-5.67a6.064,6.064,0,0,0-6.384,6.132,4.436,4.436,0,0,0,.686,2.534,2.234,2.234,0,0,0,1.974,1.246,2.928,2.928,0,0,0,2.632-1.512,15.2,15.2,0,0,0,2.156-6.524c1.428.294,2.6,1.638,2.6,3.766,0,1.68-1.358,3.122-4.368,3.626Zm-1.806-8.89a13.991,13.991,0,0,1-1.386,4.76c-.378.756-.784,1.078-1.106,1.078-.224,0-.42-.182-.574-.462a2.065,2.065,0,0,1-.238-1.064A4.123,4.123,0,0,1,47.152,15.572Zm20.51-1.064a4.673,4.673,0,0,1-.728.756l1.274.616a.379.379,0,0,0,.168.056c.056,0,.1-.028.182-.126a8.328,8.328,0,0,0,1.26-1.764.313.313,0,0,0,.042-.14.24.24,0,0,0-.112-.168l-.742-.644-1.162.056H64.008c.14-.21.266-.434.392-.658l-.028-.14L62.79,11.9l-.112.028a7.374,7.374,0,0,1-2.352,2.506l1.064,1.036c.084.084.14.112.2.112a.273.273,0,0,0,.182-.07,7.112,7.112,0,0,0,1.19-1.008h.994c-.6,1.372-2.17,1.792-3.528,1.96.084-.056.154-.112.238-.168a.238.238,0,0,0,.112-.182.313.313,0,0,0-.042-.14l-.644-1.372a16.442,16.442,0,0,1-3.276,1.68l-.042.14.8,1.554.126.028a18.9,18.9,0,0,0,2.59-1.442l.756,1.008h-.252l-1.75-.042-.1.112.042,1.582v2.128L58.9,23.2l.1.1,1.876-.042h.084a18.834,18.834,0,0,1-4.046.686l1.036,1.274a.36.36,0,0,0,.42.154,19.242,19.242,0,0,0,4.41-1.064l.014-.126-1.2-.924h3.7l-.91.91.042.126a26.023,26.023,0,0,1,4.326,1.092l.14-.056,1.078-1.162-.042-.126a22.649,22.649,0,0,0-3.318-.77l1.316.028.1-.112-.042-1.834V19.226l.042-1.33c.294.07.588.14.91.2a1.305,1.305,0,0,0,.2.028.292.292,0,0,0,.266-.168l.882-1.358c-1.918-.224-3.542-.56-4.536-1.722a2.763,2.763,0,0,0,.1-.364Zm-1.5,3.066H62.636a4.8,4.8,0,0,0,2.282-1.344,5.569,5.569,0,0,0,2.016,1.33Zm-5.25,4.088h5.054v.462H60.914Zm0-1.008v-.462h5.054v.462Zm0-1.47v-.462h5.054v.462Zm-.532-6.02-.042-.14a14,14,0,0,0-2.016-.882l-.154.042-.882,1.274.042.126a12.308,12.308,0,0,1,1.974.98h.14Zm13.538,3.15a14.278,14.278,0,0,1-1.932,4.326l.854,1.4a.271.271,0,0,0,.21.154.189.189,0,0,0,.168-.126,16.236,16.236,0,0,0,.8-1.834l-.1,5.166h1.988l-.1-5.236v-1.05c.2.336.392.686.56.994l.126.014.392-.294.56.742c.1.126.154.182.252.182a1.243,1.243,0,0,0,.322-.1c.07-.028.154-.056.224-.084l.028.8v.994l-.056,3h1.9v-.812H82.46v.812h1.96l-.056-2.926V21.368l.028-.9a1.06,1.06,0,0,0,.266.07c.1,0,.14-.056.2-.14l.952-1.47a12.925,12.925,0,0,1-3.15-1.386,11.453,11.453,0,0,0,1.82-2.926.8.8,0,0,0,.084-.294.36.36,0,0,0-.168-.294l-.784-.63-1.05.07H80.794c.14-.308.28-.644.406-.994l-.07-.14-1.624-.392-.14.084a12.659,12.659,0,0,1-2.128,3.948V14.732l-.07-.07L75.81,14.7V12.086L75.726,12H74.074l-.07.084V14.7h-.056l-1.61-.042-.084.084v1.526l.1.084ZM82.1,15.04a5.2,5.2,0,0,1-.868,1.358,5.835,5.835,0,0,1-.966-1.358ZM79.66,19.9a9.492,9.492,0,0,0,1.666-1.092A11.528,11.528,0,0,0,83.09,19.9l-.56.014H79.954Zm-3.4-2.45-.448.336v-1.47l1.12.042c-.07.084-.154.154-.224.238l1.26.812a.388.388,0,0,0,.182.084c.07,0,.112-.042.21-.14.28-.294.532-.6.784-.91A8.165,8.165,0,0,0,80,17.56,12.164,12.164,0,0,1,77.5,18.974a7.691,7.691,0,0,0-1.092-1.512Zm6.2,5.516H80.122V21.48H82.46Zm5.656-3,1.232,1.372.14-.014a20.661,20.661,0,0,1,2.436-2.268,2.682,2.682,0,0,1,1.6-.49.616.616,0,0,1,.7.532q-.462.21-.84.42c-1.3.742-2.436,1.68-2.436,3.024,0,1.2.742,2.394,3.57,2.394,1.638,0,2.814-.07,4.144-.182l.084-.112-.126-1.862-.14-.084a25.071,25.071,0,0,1-3.654.294c-1.246-.014-1.806-.14-1.806-.616s.476-.868,1.33-1.274V22.25l.112.084,1.848-.07.1-.084c-.014-.672-.028-1.358-.056-1.9,1.036-.378,2.24-.742,3.654-1.106l.07-.126L99.2,17.322l-.14-.056c-1.092.364-2.086.714-2.968,1.05a1.717,1.717,0,0,0-1.708-1.344,4.094,4.094,0,0,0-1.316.182c.28-.336.588-.77.812-1.106,1.162-.14,2.31-.322,3.332-.532l.084-.126-.14-1.652-.126-.07c-.7.168-1.4.294-2.1.406.154-.406.322-.826.49-1.316l-.084-.1-1.918-.28-.112.07a14.654,14.654,0,0,1-.658,1.876c-1.036.07-2.072.1-3.122.1l-.1.084.056,1.722.084.084c.658,0,1.358-.014,2.03-.07a16.514,16.514,0,0,1-3.486,3.57Zm21.182,4.1.938,1.064c.1.112.154.154.21.154a.226.226,0,0,0,.14-.056A10.425,10.425,0,0,0,112.8,23.2a12.138,12.138,0,0,0,2.17,1.862.409.409,0,0,0,.238.1q.084,0,.168-.126l1.148-1.624A9.584,9.584,0,0,1,114,21.55a16.964,16.964,0,0,0,1.876-6.524c.028-.224.014-.378-.056-.448l-.714-.728-1.232.056h-2.03l-1.456-.028V12.422l-.1-.1-1.764.042h-3.654l-1.6-.042-.126.07v1.54l.1.1.91-.028v7.308c-.35.056-.7.112-1.064.168l-.07.126.476,1.666.126.07c1.4-.322,2.674-.63,3.738-.924l-.042,3h1.988Zm-.056-3.584V14l.49.014v1.54l.1.1,2.016-.042h1.9a16.489,16.489,0,0,1-.98,4.1,10.569,10.569,0,0,1-.84-3.682l-.126-.07-1.666.224-.1.1a14.236,14.236,0,0,0,1.582,5.32,9.487,9.487,0,0,1-.952,1.036,10.226,10.226,0,0,1-1.386,1.078Zm-3.318-5.292v-1.2h1.47v1.2Zm1.47,1.54V17.98h-1.47V16.734Zm0,2.786V20.7c-.49.112-.98.21-1.47.308V19.52Zm20.972-1.974,2,.042.1-.1-.042-2V14.326l.042-1.722-.1-.1-2,.042h-2.982l-2-.042-.1.1.042,1.652v1.3l-.042,1.932.1.1,2-.042Zm.2-1.862v.574h-3.374v-.574Zm0-1.288h-3.374v-.56h3.374Zm-3.948,7.49-.952.84-.014.126a8.721,8.721,0,0,1,1.694,1.68h.126l.812-.742.616,1.428c.056.14.084.168.364.168,1.876,0,2.478-.462,2.478-1.722l-.042-1.778,1.876.042.084-.07v-1.47l-.084-.07-1.89.042v-.686l1.512.028.1-.1V18.19l-.1-.1-2.2.042H124.81l-2.086-.042-.1.1V19.6l.1.1,2.086-.042h3.024v.7H124.18l-1.848-.042-.084.084v1.442l.1.084,1.834-.042Zm3.22,0v1.288c0,.336-.084.42-.378.434-.21.028-.5.042-1.036.056l.322-.294.042-.1a11.583,11.583,0,0,0-1.512-1.386Zm-6.02-3.906a13.411,13.411,0,0,0,.994-1.806l-.042-.126-1.456-.812-.14.014a11.48,11.48,0,0,1-2.94,3.794l.644,1.708c.028.1.084.154.168.154a.339.339,0,0,0,.182-.084,4.836,4.836,0,0,0,.728-.784v1.75l-.07,3.612h1.932Zm-.7-5.992a8.811,8.811,0,0,1-2.814,2.618l1.022,1.414c.07.1.126.154.182.154a.308.308,0,0,0,.168-.084,13.523,13.523,0,0,0,3.08-3.108l-.042-.126-1.456-.882ZM136.6,13.094h-2.2v7.49h2.2Zm-1.092,8.344a1.351,1.351,0,1,0,0,2.7,1.351,1.351,0,0,0,0-2.7Zm6.594-8.344h-2.2v7.49h2.2Zm-1.092,8.344a1.351,1.351,0,1,0,0,2.7,1.351,1.351,0,0,0,0-2.7ZM-126.056,43.072c-1.582.784-2.982,2.226-2.982,3.08,0,1.386,2.59,2.6,3.5,2.6,1.064,0,1.5-.532,1.5-1.3V44.318a5.942,5.942,0,0,1,2.674-.756c.966,0,1.512.5,1.512,1.218,0,.812-.616,1.246-1.428,1.274a3.578,3.578,0,0,1-1.526-.392l-.434,1.694a.219.219,0,0,0,.07.252,3.572,3.572,0,0,0,2,.476c2.072,0,3.528-1.148,3.528-3.29,0-1.582-1.19-3.024-3.486-3.024a8.957,8.957,0,0,0-2.94.616l.014-1.358c.616-.112,1.246-.266,1.876-.406l.1-.112-.182-1.694-.112-.07c-.546.154-1.064.294-1.652.42l.028-2.142-.1-.084h-1.82l-.112.1-.014,2.45c-.882.126-1.806.2-2.772.238l-.1.1.084,1.694.1.084c.924-.042,1.806-.126,2.688-.252Zm.042,3.318c0,.2-.042.266-.168.266-.224,0-.854-.336-.854-.6,0-.2.406-.588,1.022-.952Zm5.124-6.622a7.594,7.594,0,0,1,3.164,1.988l.154-.042,1.05-1.484-.014-.154a7.8,7.8,0,0,0-3.248-1.918l-.154.028-.994,1.47Zm12.082-.84h5.18V40.37h2.03l-.07-1.5v-.406l.042-1.064-.112-.1-2.31.042h-2.758v-1.26l-.1-.1h-1.876l-.1.1v1.26h-2.632l-2.3-.042-.126.1.042,1.19v.42l-.07,1.5h2.03V38.928h1.89A8.794,8.794,0,0,1-114,42.092l1.2,1.148a.314.314,0,0,0,.21.112.319.319,0,0,0,.154-.042,10.076,10.076,0,0,0,2.03-1.358,10.764,10.764,0,0,0,1.064.91,19.353,19.353,0,0,1-5.152,1.428l1.036,1.428c.1.126.168.2.336.154.392-.1.784-.2,1.176-.308l.014.8v1.162l-.07,1.862h2.016v-.658h4.452v.63h2.086l-.07-1.932V46.362l.028-1.19c.336.084.686.14,1.05.21.154.028.2-.014.28-.14l1.05-1.638a22.188,22.188,0,0,1-4.9-.854,10.053,10.053,0,0,0,2.03-2.1.308.308,0,0,0,.084-.168.264.264,0,0,0-.1-.182l-.84-.77-1.12.056h-2.366c.07-.1.126-.21.2-.308l-.042-.112Zm-1.078,5.978a18.5,18.5,0,0,0,2.212-1.008,18.841,18.841,0,0,0,3,1.008Zm-.1,2.352v-.91h4.452v.91Zm3.416-6.314a5.764,5.764,0,0,1-1.148,1.022,7.18,7.18,0,0,1-1.4-1.022Zm9.058-.63a12.7,12.7,0,0,1-1.778,4.326l.854,1.4a.271.271,0,0,0,.21.154.205.205,0,0,0,.168-.126,9.158,9.158,0,0,0,.644-1.442l-.1,4.732h1.988l-.1-5.194V42.876a11.6,11.6,0,0,1,.63.994h.14l.7-.63.1.084,1.834-.042h1.12v3.892c0,.336-.084.42-.378.448a10.228,10.228,0,0,1-1.078.056l.728,1.582c.07.14.084.168.364.168,1.946,0,2.324-.49,2.324-1.708l-.056-1.5a10.863,10.863,0,0,0,2.226,2.366.318.318,0,0,0,.2.1c.07,0,.126-.042.21-.154l1.064-1.26a15.259,15.259,0,0,1-1.988-1.428,16.508,16.508,0,0,0,1.4-1.106l.014-.14-1.3-1.092h-.14a11.649,11.649,0,0,1-1.078,1.2c-.21-.238-.406-.49-.6-.756v-.672h1.54l1.834.042.1-.084V41.9l-.1-.084-1.834.042h-1.54v-.532h.63l1.834.042.1-.084V40.034l-.1-.084-1.834.028h-.63v-.532h1.372l1.834.028.1-.084v-1.3l-.1-.1-1.834.042h-.042c.252-.434.518-.938.742-1.414l-.084-.112-1.666-.42-.14.042a19.691,19.691,0,0,1-.728,1.9h-1.736l.98-.378.014-.14a8.373,8.373,0,0,0-.966-1.372H-91.6l-1.5.574v.14a7.564,7.564,0,0,1,.728,1.176l-1.666-.042-.1.1v1.3l.1.084,1.9-.028H-91.1v.532h-.532l-1.834-.028-.1.084V41.28l.1.084,1.834-.042h.532v.532h-1.12l-1.834-.042-.1.084v.532a8.072,8.072,0,0,0-.952-1.106h-.14l-.378.294V40.328l1.2.028.07-.07V38.732l-.07-.07-1.2.028v-2.6L-95.7,36h-1.652l-.07.084V38.7l-1.512-.042-.084.084v1.526l.1.084Zm6.062,4.452V44.64a6.057,6.057,0,0,0-1.442-1.232l-.154.028-1.12.854v.126A7.217,7.217,0,0,1-92.778,45.8h.126Zm-3.71,2.2.728,1.5.126.028A27.908,27.908,0,0,0-91.6,47.1c.238-.154.252-.168.238-.35l-.07-1.414a22.3,22.3,0,0,1-3.668,1.5Zm19.068,1.5a.457.457,0,0,0,.448.14c2.968-.7,4.76-2.632,4.76-5.18,0-3.108-2.044-5.67-5.866-5.67a6.064,6.064,0,0,0-6.384,6.132,4.436,4.436,0,0,0,.686,2.534,2.234,2.234,0,0,0,1.974,1.246,2.928,2.928,0,0,0,2.632-1.512,15.2,15.2,0,0,0,2.156-6.524c1.428.294,2.6,1.638,2.6,3.766,0,1.68-1.358,3.122-4.368,3.626Zm-1.806-8.89a13.991,13.991,0,0,1-1.386,4.76c-.378.756-.784,1.078-1.106,1.078-.224,0-.42-.182-.574-.462a2.065,2.065,0,0,1-.238-1.064A4.123,4.123,0,0,1-77.9,39.572ZM-67,49.26a.291.291,0,0,0,.308.154,16.574,16.574,0,0,0,5.292-1.12,14.476,14.476,0,0,0,4.984.952c.154.014.182,0,.252-.14l1.008-1.694a23.772,23.772,0,0,1-4.158-.322,15.421,15.421,0,0,0,1.736-1.54.289.289,0,0,0,.1-.2.246.246,0,0,0-.084-.182l-.784-.812-1.176.07h-2.856c.084-.1.168-.2.266-.294h.168c1.834,0,2.59-.112,3.024-.476a1.242,1.242,0,0,0,.5-.826c.182.378.35.77.49,1.148l.126.056,1.372-.742.056-.14c-.112-.21-.224-.42-.35-.616h1.33l-.07-1.848v-.238l.042-1.064-.112-.1-1.946.042h-.728c.21-.294.42-.616.658-1.022l-.042-.14-1.246-.378c.742-.056,1.442-.126,2.086-.2l.042-.14a12.425,12.425,0,0,0-1.6-1.4l-.14-.014a51.187,51.187,0,0,1-8.848.644l.9,1.428c.042.07.14.112.322.112.616-.014,1.316-.042,2.058-.07l-1.372.35-.084.112a3.766,3.766,0,0,1,.336.714h-.182l-2.282-.042-.126.1.042,1.19v.252l-.07,1.848h1.512a5.765,5.765,0,0,1-.448.574l.042.126,1.344.63.14-.042a9.144,9.144,0,0,0,.826-1.456l-.014.672a.876.876,0,0,0,.168.616,10.822,10.822,0,0,1-3.99,2.366l1.162,1.162a.245.245,0,0,0,.224.1.5.5,0,0,0,.14-.028,12.3,12.3,0,0,0,2.31-1.26,9.379,9.379,0,0,0,1.078,1.036,21.379,21.379,0,0,1-4.76.574Zm5.7-9.926.7-.224.056-.126a4.791,4.791,0,0,0-.546-1.008l1.666-.126a9.761,9.761,0,0,1-.616,1.484Zm-1.89,0a7.3,7.3,0,0,0-.6-1.19l2.142-.126-1.092.294-.056.126a5.929,5.929,0,0,1,.42.9Zm5.908,2.366q-.252-.336-.5-.63l-.14-.014-1.176.574-.042.126a3.517,3.517,0,0,1,.35.448l-1.19-.714c-.182,1.078-.266,1.148-1.764,1.148-.784,0-.8-.028-.8-.322V41.21l-.1-.112h-1.582l-.1.1v.392l-1.106-.364-.154.042a4.42,4.42,0,0,1-.28.756V40.776h4.34l-.84.294-.042.126a4.654,4.654,0,0,1,.714,1.232l.14.028,1.316-.574.042-.14a6.748,6.748,0,0,0-.742-.966h3.654Zm-3.066,3.99a9.729,9.729,0,0,1-1.078.728,6.95,6.95,0,0,1-1.19-.728Zm15.036-6.076v-.63h2.968l2.324.042.1-.1V37.346l-.1-.1-2.324.042h-2.968V36.072l-.084-.084H-47.18l-.07.084V37.29h-2.772l-2.3-.042-.126.07v1.61l.1.1,2.324-.042h2.772v.63h-1.89l-2.03-.042-.1.084.042,1.526v2.03l-.042,1.96.1.1,1.96-.042h1.96v.266l-.014.406h-3.164l-2.3-.042-.126.07v1.61l.1.1,2.324-.042h3.136l-.028,1.75h2.072l-.028-1.75h3.29l2.324.042.1-.1V45.956l-.1-.1-2.324.042H-45.3l-.014-.434v-.238h2.212l1.778.042.126-.1-.042-2.03v-1.89l.042-1.568-.112-.112-1.932.042Zm0,1.414h2.086V41.7h-2.086Zm-1.932,0V41.7h-2.03v-.672Zm0,2.03v.672h-2.03v-.672Zm1.932,0h2.086v.672h-2.086Zm8.386.91L-35.7,45.34l.14-.014a20.662,20.662,0,0,1,2.436-2.268,2.682,2.682,0,0,1,1.6-.49.616.616,0,0,1,.7.532q-.462.21-.84.42c-1.3.742-2.436,1.68-2.436,3.024,0,1.2.742,2.394,3.57,2.394,1.638,0,2.814-.07,4.144-.182l.084-.112-.126-1.862-.14-.084a25.071,25.071,0,0,1-3.654.294c-1.246-.014-1.806-.14-1.806-.616s.476-.868,1.33-1.274V46.25l.112.084,1.848-.07.1-.084c-.014-.672-.028-1.358-.056-1.9,1.036-.378,2.24-.742,3.654-1.106l.07-.126-.868-1.722-.14-.056c-1.092.364-2.086.714-2.968,1.05a1.717,1.717,0,0,0-1.708-1.344,4.094,4.094,0,0,0-1.316.182c.28-.336.588-.77.812-1.106,1.162-.14,2.31-.322,3.332-.532l.084-.126-.14-1.652-.126-.07c-.7.168-1.4.294-2.1.406.154-.406.322-.826.49-1.316l-.084-.1-1.918-.28-.112.07a14.654,14.654,0,0,1-.658,1.876c-1.036.07-2.072.1-3.122.1l-.1.084.056,1.722.084.084c.658,0,1.358-.014,2.03-.07a16.514,16.514,0,0,1-3.486,3.57Zm25.382-2.562,2.324.042.1-.1V39.642l-.1-.1-2.324.042h-3.01v-3.3l-.1-.1h-2l-.1.1v3.3H-19.25l-2.324-.042-.1.1V41.35l.1.1,2.324-.042h2.366a7.726,7.726,0,0,1-1.2,3.43,8.887,8.887,0,0,1-4.046,3.08l1.456,1.442a.255.255,0,0,0,.154.07.6.6,0,0,0,.2-.056A9.232,9.232,0,0,0-16.3,45.928a7.568,7.568,0,0,0,.966-2.254,10.353,10.353,0,0,0,4.984,5.586.4.4,0,0,0,.168.056.217.217,0,0,0,.154-.1L-8.61,47.58a10.088,10.088,0,0,1-5.74-6.174Zm8.2-1.82v-3.15l-.1-.1h-1.75l-.1.1v3.486l-1.47.224-.084.126.252,1.6.112.07,1.19-.238v.518l-.028,2.688c0,1.092.294,1.6,1.834,1.6,1.5,0,1.918-.182,2.324-.588a3.6,3.6,0,0,0,.574-2.17c0-.14-.028-.182-.168-.238l-1.582-.616c-.056,1.568-.126,1.722-.588,1.722-.406,0-.42-.014-.42-.322V41.35l.868-.154,1.568-.252.07-.112-.238-1.6-.112-.084-1.582.336Zm7.322-.546c.014,2.772-.028,5.1-.154,6.664-.084,1.106-.378,1.33-.854,1.386-.574.042-.966.042-1.5.042l.742,1.68a.376.376,0,0,0,.406.266h.546c1.82,0,2.52-.994,2.66-2.562.2-2.128.182-4.788.224-9.17l-.112-.1L3.78,37.29H.336l-1.988-.042-.084.084v1.61l.084.112L.336,39.04H.448C.406,42.5.21,43.674-.238,44.808a4.991,4.991,0,0,1-3.22,2.856l1.386,1.4a.215.215,0,0,0,.154.084.475.475,0,0,0,.2-.07A6.842,6.842,0,0,0,1.61,45.55c.532-1.246.812-2.786.868-6.51ZM14.868,38.8v1.736l.1.126c.448.028.882.028,1.33.028a20.712,20.712,0,0,0,4.046-.35l.084-.112-.084-1.764-.1-.084a22.671,22.671,0,0,1-3.948.336c-.434,0-.882-.014-1.344-.028Zm6.258,8.708L21,45.634l-.126-.084a16.357,16.357,0,0,1-2.618.294c-1.876.014-2.422-.406-2.688-1.722l-.126-.042-1.5.686-.07.126c.336,1.554,1.078,2.968,3.892,2.968a21.8,21.8,0,0,0,3.29-.224Zm-10.3-10.15a11.777,11.777,0,0,1-.364,2.492,19.646,19.646,0,0,0-.616,4.256,7.454,7.454,0,0,0,.7,3.668c.322.56.658.868,1.218.854a.924.924,0,0,0,.966-1.036,9.644,9.644,0,0,1,.658-2.954l-.406-.21a11.352,11.352,0,0,1-.714.91c-.21.21-.35.2-.392.014a6.654,6.654,0,0,1-.084-1.414,12.854,12.854,0,0,1,.518-3.248,12.97,12.97,0,0,0,.644-3.038l-.084-.112-1.932-.266Zm19.53,1.862V38.48h2.912v.756l-1.33-.042-.1.1v1.19l.1.1.938-.028a7.5,7.5,0,0,1-2.044,1.918l.826.882a.243.243,0,0,0,.2.112.222.222,0,0,0,.168-.07,7.089,7.089,0,0,0,1.26-1.4l-.084,1.54h1.764l-.084-1.68a7.377,7.377,0,0,0,1.5,1.442.354.354,0,0,0,.2.1c.07,0,.126-.042.182-.126l.882-1.12a8.692,8.692,0,0,1-2.31-1.61h.126L37,40.58l.1-.1v-1.19l-.1-.1-1.554.042h-.56V38.48H35l2.212.042.1-.1v-1.33l-.154-.1L35,37.038H32.214v-.966l-.1-.1H30.24l-.1.1v.966H27.258L24.92,37l-.1.1.042,2.338v2.814a12.93,12.93,0,0,1-.91,5.7l1.26,1.246a.189.189,0,0,0,.14.07c.056,0,.1-.028.14-.112a10.244,10.244,0,0,0,.644-1.568l.826.868c.07.07.126.112.182.112a.313.313,0,0,0,.14-.042,8.751,8.751,0,0,0,1.484-.868v.1l-.07,1.61h1.75v-.364h3.962v.336H36.26l-.07-1.624v-.518l.028-1.33-.1-.1-2.086.028H30.66a5.5,5.5,0,0,0,.406-.588h3.878l2.128.042.1-.1V43.856l-.1-.1-2.128.042H29.176l-2.1-.042-.126.07v1.316l.1.1,2.128-.042h.056a8.167,8.167,0,0,1-3,2.044,13.233,13.233,0,0,0,.35-1.974,24.753,24.753,0,0,0,.126-2.492l.42.518a.312.312,0,0,0,.21.14.171.171,0,0,0,.126-.056,9.516,9.516,0,0,0,1.3-1.372l-.084,1.526h1.736L30.38,41.7c.154.154.294.294.448.476l.112.014.784-.658v-.126a5.611,5.611,0,0,0-.91-.728H30.7l-.35.28v-.406l1.148.028.1-.1v-1.19l-.1-.1Zm-1.6.014H28.63l-1.512-.042-.1.1v1.19l.1.1,1.3-.042a9.17,9.17,0,0,1-1.708,1.5V38.48h2.044Zm1.694,8.456v-.658h3.962v.658Zm11.284-5.866.35,1.6.1.07a14.121,14.121,0,0,0,4.942-.672c.21.392.448.826.63,1.176.056.112.014.168-.084.182-.588.084-1.022.14-1.484.182l-.028.434a6.47,6.47,0,0,1,2.268.938,1.3,1.3,0,0,0,.672.238,1.217,1.217,0,0,0,1.148-1.176,2.05,2.05,0,0,0-.266-1.008c-.28-.518-.6-1.106-.952-1.736.644-.322,1.526-.784,2.24-1.232l.042-.14-.98-1.456-.126-.014a18.013,18.013,0,0,1-2.156,1.176c-.294-.476-.462-.728-.658-1.064a21.327,21.327,0,0,0,2.17-.994l.014-.14L48.72,36.73l-.14-.014a15.87,15.87,0,0,1-2.226,1.022c-.336-.476-.658-.952-1.008-1.414l-.14-.056-1.806.616-.014.14c.35.462.672.882.952,1.288a15.778,15.778,0,0,1-2.884.392l-.056.112.336,1.54.112.1a17.671,17.671,0,0,0,3.6-.518c.252.392.49.77.714,1.162a13.506,13.506,0,0,1-4.34.616Zm-.182,5c1.106,1.372,2.7,2.128,5.642,2.128.546,0,1.022-.014,1.708-.056l.112-.1-.042-1.946-.112-.112a15.707,15.707,0,0,1-1.6.084c-1.806,0-3.444-.28-4.424-1.372l-.126-.014-1.162,1.246ZM62.272,40.3V36.338l-.1-.1H60.2l-.1.112V46.908h-2.59l-2.2-.042-.084.07v1.778l.1.084,2.184-.042H65.7l2.184.042.1-.1V46.936l-.084-.07-2.2.042h-3.43V42.12H64.61l1.918.042.084-.07V40.328l-.084-.07L64.61,40.3Zm18.242-3.738a9.689,9.689,0,0,1,.854,1.862l.14.042.9-.28.056-.126a8.731,8.731,0,0,0-.91-1.848l-.14-.028-.854.266Zm1.526-.434a8.531,8.531,0,0,1,.854,1.806l.14.042.854-.28.056-.14a8.884,8.884,0,0,0-.882-1.792l-.14-.028-.84.28Zm-4.788,13.09a.33.33,0,0,0,.182.07.433.433,0,0,0,.112-.028,5.206,5.206,0,0,0,2.366-1.988,6.656,6.656,0,0,0,.77-3.808c0-.462-.014-1.176-.042-1.89.714-.056,1.372-.14,1.988-.224l.084-.1-.084-1.736-.1-.084c-.588.07-1.232.154-1.946.21-.028-.8-.07-1.6-.112-2.422l-.1-.1-1.918.042-.112.084c.056.9.112,1.75.14,2.548-.924.056-1.9.084-2.842.084l-.112.07.042,1.708.084.126c1.022-.014,1.988-.028,2.912-.07.028.644.028,1.274.028,1.708a5,5,0,0,1-.476,2.59,4.876,4.876,0,0,1-2.506,2.016ZM71.96,37.29a15.638,15.638,0,0,1-.28,2.464,25.83,25.83,0,0,0-.49,4.144,7.485,7.485,0,0,0,.84,3.794,1.611,1.611,0,0,0,1.288.868c.728,0,1.092-.42,1.036-1.3a7.323,7.323,0,0,1,.6-2.548l-.378-.21a9.809,9.809,0,0,1-.938,1.078c-.168.168-.266.154-.308-.014a7.189,7.189,0,0,1-.168-1.638A15.541,15.541,0,0,1,73.6,40.72a20.022,20.022,0,0,0,.434-3.192l-.1-.112-1.862-.21Zm16.156,4.116-.266,1.638.084.112a22.559,22.559,0,0,0,3.78.07c.014.42.042.854.07,1.274-2.128-.1-4.158.364-4.158,2.268,0,1.638,1.568,2.24,2.9,2.24,1.96,0,3.178-.588,3.262-2.1a15.066,15.066,0,0,1,2.548,1.946h.154L97.72,47.37v-.14a16.091,16.091,0,0,0-3.906-2.366c-.042-.588-.07-1.2-.1-1.862a23.539,23.539,0,0,0,2.814-.6l.07-.126-.224-1.582-.126-.084a21.184,21.184,0,0,1-2.59.574c-.028-.448-.028-.882-.028-1.33a21.354,21.354,0,0,0,2.324-.476l.1-.112-.182-1.456L95.76,37.7c-.644.154-1.358.28-2.128.392.014-.518.028-1.078.042-1.624l-.1-.112h-1.89l-.1.112c-.014.644-.014,1.232-.014,1.806a26.919,26.919,0,0,1-3.01-.014l-.112.084-.042,1.554.1.126a25.123,25.123,0,0,0,3.08.028c.042.448.014.9.042,1.344a19.687,19.687,0,0,1-3.416-.084Zm3.612,4.844c.056.63-.224.98-1.008.98-.91,0-1.2-.252-1.2-.588,0-.252.476-.56,1.2-.56A2.256,2.256,0,0,1,91.728,46.25Zm13.9,2.884a.423.423,0,0,0,.224.07.51.51,0,0,0,.2-.028c.042-.014.084-.028.14-.042a5.494,5.494,0,0,0,3.22-2.436A4.448,4.448,0,0,0,110,44.4a5.638,5.638,0,0,0-.308-1.708c-.042-.952-.042-1.764-.042-2.534,1.358-.056,2.758-.07,4.144-.07l.112-.1v-1.75l-.112-.1c-1.33.014-2.73.07-4.13.126.014-.532.028-1.106.042-1.75l-.112-.112H107.66l-.084.1V38.4c-1.876.1-3.864.238-5.81.378l-.1.126.14,1.764.112.084c1.974-.224,3.864-.392,5.656-.49.014.336.014.6.014.91a2.538,2.538,0,0,0-.7-.07c-1.232,0-2.52,1.5-2.52,3.164,0,.994.7,1.666,1.988,1.666a1.929,1.929,0,0,0,1.344-.322c-.364.868-1.638,1.75-3.668,2.17Zm2.016-5.838c-.028.644-.434.882-1.008.882-.364,0-.448-.126-.448-.392,0-.434.462-1.036.854-1.036C107.324,42.75,107.548,42.9,107.646,43.3Zm16.646-6.2h-2.2v7.49h2.2ZM123.2,45.718a1.351,1.351,0,1,0,0,2.7,1.351,1.351,0,0,0,0-2.7Z" transform="translate(187.5 6607.708)" fill="#c51726"/>
  </g>
</svg>
