<svg xmlns="http://www.w3.org/2000/svg" xmlns:xlink="http://www.w3.org/1999/xlink" width="171.111" height="178.704" viewBox="0 0 171.111 178.704">
  <defs>
    <clipPath id="clip-path">
      <rect id="長方形_1608" data-name="長方形 1608" width="171.112" height="178.704" fill="none"/>
    </clipPath>
  </defs>
  <g id="グループ_6885" data-name="グループ 6885" transform="translate(-8139 4682.335)">
    <g id="グループ_3937" data-name="グループ 3937" transform="translate(8139 -4682.335)">
      <g id="グループ_3696" data-name="グループ 3696" clip-path="url(#clip-path)">
        <path id="パス_4021" data-name="パス 4021" d="M60.237,321.82c-12.442-10.177-34.118-12.762-44.688-4.769C5.242,324.843,2.728,330.15,7,329.234a21,21,0,0,0,6.441-2.309s-3.593,4.05.7,3.138c4.026-.857,5.188-.583,5.188-.583s5.413,20.43,33.325,35.819a17.143,17.143,0,0,1,8.125,10.012" transform="translate(-3.592 -223.754)" fill="#c51726"/>
        <path id="パス_4022" data-name="パス 4022" d="M57.185,373.151a1.419,1.419,0,0,1-1.355-1,15.663,15.663,0,0,0-7.453-9.185c-14.661-8.083-23.108-17.577-27.613-24.118a49.3,49.3,0,0,1-6.076-11.553,25.4,25.4,0,0,0-3.845.58c-.663.141-2.681.57-3.541-.905a2.017,2.017,0,0,1-.265-.835,29.73,29.73,0,0,1-3.33.911c-2.334.5-3.19-.533-3.493-1.193-.621-1.358.1-3.181,2.272-5.739a55.69,55.69,0,0,1,8.615-7.769c5.291-4,13.548-5.717,22.654-4.707,8.94.991,17.61,4.457,23.788,9.51a1.418,1.418,0,1,1-1.8,2.2C43.6,309.4,22.733,307.1,12.812,314.6c-6.826,5.161-9.177,8.394-9.79,9.684l.091-.018a20.169,20.169,0,0,0,5.976-2.118,1.419,1.419,0,0,1,1.823,2.137,7.816,7.816,0,0,0-.612.8c3.988-.844,5.417-.646,5.761-.566a1.418,1.418,0,0,1,1.046,1.017,43.252,43.252,0,0,0,6.08,11.824c4.33,6.253,12.452,15.339,26.558,23.116a18.486,18.486,0,0,1,8.8,10.84,1.419,1.419,0,0,1-1.357,1.833" transform="translate(0 -220.175)"/>
        <path id="パス_4023" data-name="パス 4023" d="M403.105,519.408a6.857,6.857,0,0,1,13.215,1.029,19.443,19.443,0,0,1-.068,6.666c-2.115,13.283-7.1,15.195-10.383,13.271-2.523-1.481-5.472-3.505-3.7-16.976a18.96,18.96,0,0,1,.933-3.99" transform="translate(-287.715 -368.799)"/>
        <path id="パス_4024" data-name="パス 4024" d="M407.814,540.82a4.5,4.5,0,0,1-2.291-.648c-2.353-1.381-5.576-3.271-3.756-17.1a19.221,19.221,0,0,1,.939-4.015l.113.041-.113-.041a6.977,6.977,0,0,1,13.446,1.048,19.726,19.726,0,0,1-.067,6.707c-1.5,9.426-4.323,12.588-6.426,13.581a4.306,4.306,0,0,1-1.845.422m1.444-26.187a6.633,6.633,0,0,0-6.326,4.511,18.972,18.972,0,0,0-.927,3.964c-1.8,13.666,1.344,15.51,3.64,16.857a4.055,4.055,0,0,0,3.911.216c2.051-.968,4.807-4.08,6.292-13.4a19.485,19.485,0,0,0,.068-6.625,6.608,6.608,0,0,0-6.077-5.5c-.2-.016-.39-.024-.582-.024" transform="translate(-287.43 -368.493)"/>
        <path id="パス_4025" data-name="パス 4025" d="M315.225,541.893a6.857,6.857,0,0,1,13.215,1.029,19.441,19.441,0,0,1-.068,6.666c-2.115,13.283-7.1,15.195-10.383,13.27-2.524-1.481-5.472-3.505-3.7-16.976a18.954,18.954,0,0,1,.933-3.99" transform="translate(-224.761 -384.906)"/>
        <path id="パス_4026" data-name="パス 4026" d="M319.935,563.3a4.509,4.509,0,0,1-2.29-.648c-2.353-1.381-5.576-3.272-3.757-17.1a19.226,19.226,0,0,1,.939-4.015,6.978,6.978,0,0,1,13.447,1.047,19.736,19.736,0,0,1-.067,6.708c-1.5,9.426-4.323,12.588-6.427,13.581a4.3,4.3,0,0,1-1.845.422m-4.882-21.677h0a18.982,18.982,0,0,0-.927,3.964c-1.8,13.665,1.345,15.51,3.64,16.857a4.056,4.056,0,0,0,3.911.216c2.051-.969,4.807-4.08,6.292-13.4a19.493,19.493,0,0,0,.068-6.625,6.737,6.737,0,0,0-12.985-1.011" transform="translate(-224.476 -384.598)"/>
        <path id="パス_4027" data-name="パス 4027" d="M196.588,190.6c16.231-10.175,18.941-22.26,18.135-30.691a13.5,13.5,0,0,1,3.735-10.739c22.633-23.149,19.485-40.331,19.485-40.331s1.03-.606,5.128-.977c4.37-.4-.26-3.2-.26-3.2a21.016,21.016,0,0,0,6.836.3c4.352-.387.383-4.714-11.767-9.112-12.461-4.512-32.4,4.362-41.282,17.761-2.957-1.891-6.117-5.646-9.359-10.5-10.924-16.367-20.219-42.4-28.3-54.526a23.985,23.985,0,0,0-26.41-10.514l-.528.163-2.143.663A23.99,23.99,0,0,0,114,62.487c.219,17.514,7.751,57.806,6.186,75.146-2,22.219,1.147,35.917,12.89,49.884,4.768,5.672,15.5,13.084,32.9,12.645l6.984-.976a58.538,58.538,0,0,0,19.234-6.2c2.514-1.327,4.4-2.388,4.4-2.388" transform="translate(-81.662 -26.726)" fill="#c51726"/>
        <path id="パス_4028" data-name="パス 4028" d="M160.912,198.055a48.23,48.23,0,0,1-20.3-4.18,35.534,35.534,0,0,1-12.207-8.99c-11.725-13.946-15.307-27.748-13.216-50.924.9-9.928-1.218-27.358-3.263-44.214C110.468,77.726,109.09,66.372,109,58.96c-.125-10.148,4.454-16.4,8.317-19.85A25.429,25.429,0,0,1,125.857,34l2.671-.826a25.464,25.464,0,0,1,28.01,11.082c3.792,5.691,7.837,14.375,12.12,23.568,5.094,10.934,10.361,22.239,16.179,30.957,2.9,4.35,5.534,7.469,7.835,9.3A47.089,47.089,0,0,1,211.748,93.17c8.4-3.654,16.8-4.455,23.033-2.2,4.495,1.627,14.895,5.827,14.393,9.687-.094.72-.606,1.96-2.983,2.171a29.824,29.824,0,0,1-3.45.113,2.022,2.022,0,0,1-.007.876c-.385,1.664-2.44,1.85-3.116,1.912a26.184,26.184,0,0,0-3.728.554,33,33,0,0,1-1.418,10.883c-3.457,12.17-12.012,22.732-18.58,29.45a12.049,12.049,0,0,0-3.337,9.612,28.579,28.579,0,0,1-2.816,15.449c-3.056,6.271-8.432,11.849-15.978,16.58l-.058.034c-.019.011-1.93,1.086-4.432,2.406a59.776,59.776,0,0,1-19.7,6.347l-6.984.976a1.377,1.377,0,0,1-.161.013c-.507.013-1.013.02-1.515.02M135.047,35.183a21.666,21.666,0,0,0-5.682.7l-2.669.826A23.031,23.031,0,0,0,119.12,41.3c-4.924,4.447-7.375,10.376-7.286,17.623s1.459,18.538,2.908,30.48c2.063,17,4.2,34.584,3.272,44.811-2.014,22.319,1.391,35.557,12.562,48.844,2.5,2.969,12.153,12.608,31.7,12.142l6.9-.965a56.946,56.946,0,0,0,18.768-6.046c2.3-1.214,4.089-2.215,4.335-2.353,15.79-9.911,18.2-21.423,17.448-29.337a14.88,14.88,0,0,1,4.133-11.865c6.286-6.429,14.479-16.51,17.817-28.025,1.986-6.853,1.293-11.023,1.286-11.065a1.425,1.425,0,0,1,.676-1.472c.3-.18,1.613-.792,5.672-1.164a7.8,7.8,0,0,0-.822-.583,1.418,1.418,0,0,1,1.117-2.578,20.191,20.191,0,0,0,6.33.256l.11-.011C245,98.82,241.4,96.385,233.816,93.64c-11.7-4.235-30.95,4.129-39.617,17.21a1.418,1.418,0,0,1-1.946.412c-2.925-1.87-6.121-5.438-9.774-10.908-5.939-8.9-11.252-20.3-16.391-31.334-4.236-9.092-8.237-17.681-11.91-23.193-4.017-6.032-9.388-9.542-15.962-10.432a23.678,23.678,0,0,0-3.169-.211m57.96,151.874h0Z" transform="translate(-78.08 -23.182)"/>
        <path id="パス_4029" data-name="パス 4029" d="M115.132,76.187c-6.169,1.067-10.978,4.272-15.046,8.082a8.889,8.889,0,0,1-8.747,2C86.048,84.454,80.4,82.933,74.3,84.307c-12.208,2.746-20.408,13.562-18.591,24.52,1.945,11.723,14.42,19.2,27.463,16.609a26.641,26.641,0,0,0,14.373-7.954,8.775,8.775,0,0,1,8.755-2,27.847,27.847,0,0,0,16.372,2.1c13.044-2.594,21.708-14.278,19.019-25.852-2.513-10.819-14.227-17.675-26.557-15.541" transform="translate(-39.726 -54.299)"/>
        <path id="パス_4030" data-name="パス 4030" d="M123.194,150.744a10.035,10.035,0,1,1-11.8-7.885,10.035,10.035,0,0,1,11.8,7.885" transform="translate(-74.011 -102.2)" fill="#fff"/>
        <path id="パス_4031" data-name="パス 4031" d="M262.457,123.049a10.035,10.035,0,1,1-11.8-7.885,10.035,10.035,0,0,1,11.8,7.885" transform="translate(-173.774 -82.36)" fill="#fff"/>
        <path id="パス_4035" data-name="パス 4035" d="M123.013,168.991a6.27,6.27,0,1,1-7.372-4.926,6.27,6.27,0,0,1,7.372,4.926" transform="translate(-77.523 -119.735)"/>
        <path id="パス_4036" data-name="パス 4036" d="M262.276,141.3a6.27,6.27,0,1,1-7.373-4.926,6.27,6.27,0,0,1,7.373,4.926" transform="translate(-177.286 -99.896)"/>
        <path id="パス_4037" data-name="パス 4037" d="M138.728.14A3.255,3.255,0,0,1,142.54,1.7a5.493,5.493,0,0,1,.746,4.354s2.715-4.081,4.861-2.78,1.783,3.717-.285,6.188a17.941,17.941,0,0,1-4.815,3.927,17.947,17.947,0,0,1-6.2-.343c-3.126-.782-4.84-2.523-3.87-4.837s5.566-.611,5.566-.611a5.493,5.493,0,0,1-1.958-3.96,3.259,3.259,0,0,1,2.146-3.5" transform="translate(-95.063 0)"/>
        <g id="グループ_4774" data-name="グループ 4774" transform="translate(9632.374 75.1) rotate(-20)">
          <g id="グループ_4680" data-name="グループ 4680" transform="translate(-8998.938 -3291.485)">
            <rect id="長方形_967" data-name="長方形 967" width="18.412" height="7.168" rx="3.584" transform="translate(1.981 0.84) rotate(9.157)" fill="#ff0"/>
            <path id="パス_176" data-name="パス 176" d="M380.977,4364.383a3.756,3.756,0,0,1-.592-.046h0L367.15,4362.2a3.714,3.714,0,0,1-3.071-4.253l.344-2.134a3.709,3.709,0,0,1,4.252-3.07l13.235,2.133a3.715,3.715,0,0,1,3.071,4.253l-.344,2.135A3.714,3.714,0,0,1,380.977,4364.383Zm-.209-2.428a1.3,1.3,0,0,0,1.487-1.074l.344-2.135a1.3,1.3,0,0,0-1.074-1.487l-13.235-2.135a1.3,1.3,0,0,0-1.487,1.075l-.344,2.135a1.3,1.3,0,0,0,1.074,1.486Z" transform="translate(-364.031 -4352.698)"/>
          </g>
          <g id="グループ_4681" data-name="グループ 4681" transform="translate(-8999.261 -3283.778) rotate(10)">
            <rect id="長方形_968" data-name="長方形 968" width="18.412" height="7.168" rx="3.584" transform="translate(1.98 0.84) rotate(9.157)" fill="#ff0"/>
            <path id="パス_177" data-name="パス 177" d="M16.946,11.686a3.7,3.7,0,0,1-.592-.047h0L3.119,9.505A3.713,3.713,0,0,1,.048,5.253L.392,3.118A3.71,3.71,0,0,1,4.643.048L17.879,2.181A3.712,3.712,0,0,1,20.95,6.432l-.344,2.136A3.714,3.714,0,0,1,16.946,11.686Zm-.209-2.428a1.3,1.3,0,0,0,1.487-1.074l.344-2.135a1.3,1.3,0,0,0-1.074-1.487L4.26,2.427A1.3,1.3,0,0,0,2.773,3.5L2.429,5.638A1.3,1.3,0,0,0,3.5,7.125Z" transform="translate(0 0)"/>
          </g>
          <g id="グループ_4683" data-name="グループ 4683" transform="translate(-8997.798 -3298.676)">
            <rect id="長方形_966" data-name="長方形 966" width="18.412" height="7.168" rx="3.584" transform="translate(1.981 0.84) rotate(9.157)" fill="#ff0"/>
            <path id="パス_175" data-name="パス 175" d="M16.947,11.686a3.721,3.721,0,0,1-.592-.047h0L3.119,9.5A3.713,3.713,0,0,1,.048,5.254L.392,3.119A3.706,3.706,0,0,1,4.644.049L17.879,2.181A3.713,3.713,0,0,1,20.95,6.433l-.344,2.134A3.714,3.714,0,0,1,16.947,11.686Zm-.209-2.428a1.3,1.3,0,0,0,1.487-1.074l.344-2.135A1.3,1.3,0,0,0,17.5,4.562L4.26,2.428A1.3,1.3,0,0,0,2.773,3.5L2.429,5.636A1.3,1.3,0,0,0,3.5,7.124Z" transform="translate(0 0)"/>
          </g>
        </g>
      </g>
    </g>
    <path id="パス_27510" data-name="パス 27510" d="M-20.992-11.088l.048-1.952-.128-.128-2.368.048h-5.84l-2.48-.048-.112.1.048,1.9v.8l-.048,2.192.112.112,2.4-.048h6.08l2.192.048.144-.112-.048-2.256Zm-2.272-.112h-6.352v-.544h6.352Zm-6.352,1.184h6.352v.528h-6.352ZM-32.256-6V-.928c-.528.064-1.056.128-1.6.176l-.112.144.56,1.552.128.048C-31.3.672-29.728.4-28.32.1l-.032,1.5h2.208L-26.176.208l.928,1.1c.112.144.16.224.272.224a.686.686,0,0,0,.272-.1A10.1,10.1,0,0,0-22.64.144a9.248,9.248,0,0,0,2.528,1.312.553.553,0,0,0,.192.048c.1,0,.144-.048.208-.16l1.024-1.616A9.79,9.79,0,0,1-21.216-1.28a8.958,8.958,0,0,0,1.632-2.96,1.188,1.188,0,0,0,.064-.288.441.441,0,0,0-.176-.336l-.672-.672-.576.048h-3.1l-1.744-.048-.1.1v1.6l.112.032,1.808-.048h.208l-1.488.608L-25.3-3.1A8.59,8.59,0,0,0-24.08-1.2a10.326,10.326,0,0,1-2.1,1.168l-.048-2.336V-6.016h5.44l1.856.048.112-.112V-7.616l-.1-.08-1.872.048H-31.872L-33.824-7.7l-.1.08v1.552l.112.1Zm3.984-.016v.672H-30.24v-.672ZM-30.24-2.08h1.968l-.016.64c-.656.112-1.3.192-1.952.272Zm1.968-1.968v.672H-30.24v-.672Zm4.528.192h1.776a5.62,5.62,0,0,1-.752,1.344,7.588,7.588,0,0,1-.9-1.28Zm13.3-4.512-.064.064c-.72.752-2.144,1.072-4.256,1.232l.816,1.136-2.1-.032-.112.112v1.568l.112.112,2.656-.048H-5.84v3.3c0,.384-.1.48-.432.512-.208.016-.464.048-.9.064l-.048-.912v-.992l.048-1.376-.112-.112L-9.664-3.7h-1.872l-2.4-.048-.1.112.048,1.376v.992l-.08,2h2.16v-.8h2.528V.5h2.128l.448.88c.08.16.1.192.416.192,2.336,0,2.912-.656,2.912-2.208l-.08-1.968v-1.6l2.08.032.112-.112V-5.856l-.112-.112-2.512.048.88-.992-.032-.16A42.281,42.281,0,0,0-8.192-8.1a1.952,1.952,0,0,0,.112-.272h1.84l2.64.048.112-.112v-.64H-1.7l-.08-1.76v-.352l.048-1.216-.128-.112-2.64.048H-7.712v-1.168l-.112-.112H-9.968l-.112.112v1.168h-3.008l-2.656-.048-.112.112.048,1.28v.288l-.08,1.76h1.728v.64l.112.112,2.656-.048Zm.464-2.336v.176c0,.192,0,.368-.016.544h-1.392l-2.256-.048V-10.7Zm2.176,0H-4v.672l-2.24.048H-7.808Zm-3.76,4.784a5.764,5.764,0,0,0,2.256-.9c1.2.272,2.384.56,3.552.9Zm2.192,4.4H-11.9v-.72h2.528ZM5.808-12.912a26.2,26.2,0,0,1-.528,3.36,18.293,18.293,0,0,0-.608,3.936,6.361,6.361,0,0,0,.64,2.784l.16.064,2.016-.48.08-.16a5.667,5.667,0,0,1-.416-1.984,4.585,4.585,0,0,1,.336-1.952c.3-.8,1.072-1.616,1.68-1.616a.909.909,0,0,1,.96.64,7.026,7.026,0,0,1,.3,2.432c0,2.9-.88,4.432-4.64,5.36L7.44,1.088a.448.448,0,0,0,.3.144,1.481,1.481,0,0,0,.3-.064C11.824-.112,13.04-2.384,13.04-5.7A6.808,6.808,0,0,0,12.1-9.744a2.632,2.632,0,0,0-2.32-1.264,2.627,2.627,0,0,0-2.24,1.232c.176-.592.3-.944.416-1.408.1-.464.16-.832.256-1.568L8.1-12.88l-2.16-.144ZM27.44.528a.522.522,0,0,0,.512.16c3.392-.8,5.44-3.008,5.44-5.92,0-3.552-2.336-6.48-6.7-6.48a6.931,6.931,0,0,0-7.3,7.008,5.07,5.07,0,0,0,.784,2.9A2.553,2.553,0,0,0,22.432-.384,3.346,3.346,0,0,0,25.44-2.112,17.367,17.367,0,0,0,27.9-9.568c1.632.336,2.976,1.872,2.976,4.3,0,1.92-1.552,3.568-4.992,4.144ZM25.376-9.632a15.989,15.989,0,0,1-1.584,5.44c-.432.864-.9,1.232-1.264,1.232-.256,0-.48-.208-.656-.528A2.36,2.36,0,0,1,21.6-4.7,4.713,4.713,0,0,1,25.376-9.632ZM-37.12,18.24c.336,2.608,2,3.936,4.944,3.936,2.816,0,4.5-1.488,4.5-3.808,0-2.048-1.12-3.04-3.776-3.888-1.792-.576-2.384-1.024-2.384-1.872a1.173,1.173,0,0,1,1.264-1.28c1.056,0,1.648.784,1.76,2.288l2.848-.592c-.352-2.384-1.92-3.664-4.48-3.664-2.528,0-4.192,1.408-4.192,3.76,0,1.9,1.168,3.008,3.44,3.808,1.968.688,2.512,1.04,2.512,1.936A1.154,1.154,0,0,1-32,20.048c-1.328,0-1.968-.768-2.176-2.176Zm12,0c.336,2.608,2,3.936,4.944,3.936,2.816,0,4.5-1.488,4.5-3.808,0-2.048-1.12-3.04-3.776-3.888-1.792-.576-2.384-1.024-2.384-1.872a1.173,1.173,0,0,1,1.264-1.28c1.056,0,1.648.784,1.76,2.288l2.848-.592c-.352-2.384-1.92-3.664-4.48-3.664-2.528,0-4.192,1.408-4.192,3.76,0,1.9,1.168,3.008,3.44,3.808,1.968.688,2.512,1.04,2.512,1.936A1.154,1.154,0,0,1-20,20.048c-1.328,0-1.968-.768-2.176-2.176Zm12.512-.848L-11.2,18.96l.16-.016a23.613,23.613,0,0,1,2.784-2.592,3.065,3.065,0,0,1,1.824-.56.7.7,0,0,1,.8.608q-.528.24-.96.48c-1.488.848-2.784,1.92-2.784,3.456,0,1.376.848,2.736,4.08,2.736,1.872,0,3.216-.08,4.736-.208l.1-.128-.144-2.128-.16-.1a28.653,28.653,0,0,1-4.176.336c-1.424-.016-2.064-.16-2.064-.7s.544-.992,1.52-1.456V20l.128.1,2.112-.08.112-.1c-.016-.768-.032-1.552-.064-2.176C-2.016,17.312-.64,16.9.976,16.48l.08-.144L.064,14.368-.1,14.3c-1.248.416-2.384.816-3.392,1.2A1.962,1.962,0,0,0-5.44,13.968a4.679,4.679,0,0,0-1.5.208c.32-.384.672-.88.928-1.264,1.328-.16,2.64-.368,3.808-.608l.1-.144-.16-1.888-.144-.08c-.8.192-1.6.336-2.4.464.176-.464.368-.944.56-1.5l-.1-.112-2.192-.32-.128.08a16.747,16.747,0,0,1-.752,2.144c-1.184.08-2.368.112-3.568.112l-.112.1.064,1.968.1.1c.752,0,1.552-.016,2.32-.08a18.873,18.873,0,0,1-3.984,4.08Zm29.872.944,2.112.048.1-.1V16.576l-.1-.08-2.112.048H15.136V15.12a4.769,4.769,0,0,0,1.344.112c1.36,0,1.728-.064,2.208-.5a1.7,1.7,0,0,0,.528-1.312c.016-.144,0-.192-.16-.256l-1.584-.592c-.048.832-.176.9-.528.9-.256,0-.3-.032-.3-.224V11.216l-.128-.112H14.7l-.128.1v2.576c0,.64.064.992.3,1.2H13.1l-.08.08v1.488H11.36L9.3,16.5V14.9c-.448.144-.88.288-1.328.432V13.3l1.264.032.1-.08V11.472l-.1-.08-1.264.032V8.368l-.144-.112H6.016l-.128.128v3.04L4.56,11.392l-.1.1v1.744l.112.1L5.888,13.3V15.9c-.5.112-1.04.24-1.616.352l-.08.144.64,1.872.144.08c.32-.08.624-.16.912-.256v2.736c0,.384-.1.48-.432.512a9.347,9.347,0,0,1-1.184.064l.8,2c.064.16.112.192.3.192,1.952,0,2.672-.48,2.672-2.336L7.968,17.7v-.3c.352-.128.672-.256.992-.384a1.065,1.065,0,0,0,.192-.1v1.36l.112.112,2.1-.048h.832a12.2,12.2,0,0,1-3.92,2.816L9.44,22.5c.112.128.192.192.3.192a.505.505,0,0,0,.256-.08,12.348,12.348,0,0,0,3.056-2.624l-.128,3.568h2.32L15.1,19.9a12.02,12.02,0,0,0,3.024,2.544.422.422,0,0,0,.24.08.333.333,0,0,0,.272-.176l1.184-1.6a13.958,13.958,0,0,1-3.92-2.416Zm-7.68-7.6L9.5,12.208h2.128V10.752h5.52v1.456H19.36l-.08-1.472v-.5l.048-1.152-.112-.112-1.968.048H11.52L9.664,8.976l-.128.112.048,1.168Zm.9,4.864a.281.281,0,0,0,.24.1,1.1,1.1,0,0,0,.208-.032c1.936-.5,2.912-1.664,3.248-4.064l-.144-.144-1.9-.32-.128.1c-.112,1.7-.5,2.416-2.688,2.912Zm16.64,7.7a.483.483,0,0,0,.256.08.583.583,0,0,0,.224-.032c.048-.016.1-.032.16-.048a6.279,6.279,0,0,0,3.68-2.784,5.083,5.083,0,0,0,.672-2.624,6.444,6.444,0,0,0-.352-1.952c-.048-1.088-.048-2.016-.048-2.9,1.552-.064,3.152-.08,4.736-.08l.128-.112v-2l-.128-.112c-1.52.016-3.12.08-4.72.144.016-.608.032-1.264.048-2l-.128-.128H29.44l-.1.112v2.16c-2.144.112-4.416.272-6.64.432l-.112.144.16,2.016.128.1c2.256-.256,4.416-.448,6.464-.56.016.384.016.688.016,1.04a2.9,2.9,0,0,0-.8-.08c-1.408,0-2.88,1.712-2.88,3.616,0,1.136.8,1.9,2.272,1.9a2.205,2.205,0,0,0,1.536-.368c-.416.992-1.872,2-4.192,2.48Zm2.3-6.672c-.032.736-.5,1.008-1.152,1.008-.416,0-.512-.144-.512-.448,0-.5.528-1.184.976-1.184C29.056,16,29.312,16.176,29.424,16.624Z" transform="translate(8224.305 -4566.44)" fill="#fff"/>
  </g>
</svg>
