<?xml version="1.0" encoding="UTF-8"?>
<svg xmlns="http://www.w3.org/2000/svg" width="53.5093299mm" height="70.9379655mm" xmlns:xlink="http://www.w3.org/1999/xlink" version="1.1" viewBox="0 0 151.6799927 201.0839996">
  <defs>
    <style>
      .cls-1 {
        fill: none;
      }

      .cls-2, .cls-3, .cls-4, .cls-5 {
        stroke: #000;
      }

      .cls-2, .cls-4 {
        stroke-width: 2px;
      }

      .cls-6 {
        clip-path: url(#clippath-1);
      }

      .cls-7 {
        fill: #fff;
      }

      .cls-8 {
        fill: #ff0;
      }

      .cls-9, .cls-3 {
        fill: #218a4f;
      }

      .cls-4 {
        fill: #c51726;
      }

      .cls-10 {
        clip-path: url(#clippath);
      }
    </style>
    <clipPath id="clippath">
      <rect class="cls-1" x="50.0730019" y="0" width="97.9869957" height="143.6409912"/>
    </clipPath>
    <clipPath id="clippath-1">
      <rect class="cls-1" y="105.8759766" width="151.6799927" height="95.2080078"/>
    </clipPath>
  </defs>
  <!-- Generator: Adobe Illustrator 28.7.1, SVG Export Plug-In . SVG Version: 1.2.0 Build 142)  -->
  <g>
    <g id="_コンポーネント_108_3" data-name="コンポーネント_108_3">
      <g class="cls-10">
        <g id="_マスクグループ_3745" data-name="マスクグループ_3745">
          <g id="_グループ_3940" data-name="グループ_3940">
            <g id="_グループ_1644" data-name="グループ_1644">
              <g id="_グループ_1641" data-name="グループ_1641">
                <path id="_パス_166" data-name="パス_166" class="cls-9" d="M141.4539795,137.2389526c2.7650146,4.0800781,6.8999939,1.8652344,3.9719849-5.6870117-2.1220093-5.4667969-8.571991-11.3061523-11.9729919-14.1118164-1.8089905-10.1699219-4.3880005-19.7421875-6.1839905-26.6181641-4.1059875-15.7290039-8.4899902-22.684082-15.0650024-28.9511719-3.8014832-3.6967773-8.9915466-5.6098633-14.2829895-5.2641602l-.1690063.0209961-.1690063-.0209961c-5.2914124-.3457031-10.4814606,1.5673828-14.2830048,5.2641602-6.5749969,6.2680664-10.9579926,13.222168-15.0650024,28.9511719-1.3930054,5.3369141-3.2590027,12.2998047-4.8699951,19.8999023-1.6470032-1.9331055-3.7220001-4.6118164-4.1439972-6.3120117-.7189941-2.8999023,2.0079956-3.2998047.8809967-8.1000977s-5.7830048-4.2001953-5.7400055,3.8999023c.0390015,7.2368164,6.0330048,17.3549805,7.3119965,19.4331055-.6560059,3.9770508-1.1779938,8.0229492-1.477005,12.0131836-3.5310059,3-9.1999969,8.375-11.1620026,13.4321289-2.9309998,7.5507812,1.2070007,9.7670898,3.9720001,5.6879883s.3600006-5.4267578,2.0670013-7.8759766c.8170013-1.1738281,2.8999939-2.5668945,4.8500061-3.7001953.0119934,1.7539062.0820007,3.480957.2180023,5.1689453-1.7839966,4.2250977-4.529007,11.7998047-3.9689941,17.328125.8159943,8.0581055,5.5079956,8.1547852,6.1199951,3.262207s-2.1419983-5-1.7339935-7.9550781c.2404327-1.1137695.6605988-2.1811523,1.2440033-3.1601562.1329956.4570312.2709961.9091797.4199982,1.3540039,6.3059998,18.8081055,20.970993,26.269043,20.970993,26.269043,0,0-6.352005,1.3510742-8.2590027,5.0800781s-1.2140045,3.8139648,2.6069946,3.8139648c3.7619934,0,9.1269989.2548828,11.7700043.2548828,2.1999969,0,2.6690063.4169922,2.427002-2.2670898-.070282-1.4863281-.7243347-2.8847656-1.8200073-3.8911133,5.0299835,2.0043945,10.6370392,2.0043945,15.6670074,0-1.0958557,1.0063477-1.749939,2.4047852-1.8200073,3.8911133-.2430115,2.6850586.2279968,2.2670898,2.427002,2.2670898s4.2829895-.2548828,8.0270081-.2548828c3.8210144,0,8.9219971,1.3178711,7.0150146-2.4130859s-8.9230042-6.4819336-8.9230042-6.4819336c0,0,14.6650085-7.4609375,20.9710083-26.269043,1.3054199-4.1210938,2.047821-8.3999023,2.2070007-12.7202148,1.265686.8725586,2.3706665,1.9580078,3.2659912,3.2080078,1.4819946,2.5917969-1.0329895,3.7211914,1.3590088,8.0297852s6.7099915,2.4692383,4.4609985-5.3120117c-1.3800049-4.7768555-5.8380127-10.1000977-9.0750122-13.4941406-.1289978-3.0131836-.3999939-6.0791016-.7820129-9.1420898,1.7584229.9125977,3.3398743,2.1318359,4.6700134,3.6000977,1.7050171,2.4482422-.6999817,3.7944336,2.0650024,7.8725586Z"/>
                <path id="_パス_167" data-name="パス_167" d="M90.5650024,191.9259644c-.1679993,0-.3390045,0-.5110016-.0078125-.220993-.0058594-.4669952-.0131836-.7420044-.0131836-1.223999,0-3.0310059-.0551758-4.9420013-.112793-2.25-.0668945-4.8000031-.1411133-6.8280029-.1411133-2.3309937,0-3.8699951,0-4.6119995-1.2119141-.720993-1.1782227-.0679932-2.6601562.8589935-4.4760742,1.272995-2.4887695,4.1170044-4.0209961,6.3000031-4.8710938-7.1760712-4.9169922-12.9238281-11.6445312-16.6600037-19.5.2681274,1.1577148.3159637,2.3554688.1410065,3.5307617-.3379974,2.7001953-1.8000031,4.4331055-3.727005,4.4331055h-.0379944c-2-.0229492-4.3390045-2.0668945-4.9120026-7.7270508-.5789948-5.7119141,2.1640015-13.3999023,3.9429932-17.6669922-.0659943-.8710938-.1159973-1.7661133-.1490021-2.6801758-.9708252.565918-1.8360138,1.2963867-2.5570068,2.1582031-.4169006.621582-.5701141,1.3828125-.4259949,2.1171875.1959839,2.0522461-.3861389,4.1030273-1.6309967,5.7460938-1.5359955,2.2661133-3.6419983,3.1459961-5.3659973,2.2402344-1.7700043-.9282227-2.9279938-3.809082-.8690033-9.1137695,1.9230042-4.9550781,7.0209961-10.0678711,11.1199951-13.6000977.276001-3.4638672.7369995-7.2001953,1.371994-11.1181641-1.9869995-3.2871094-7.2140045-12.6000977-7.2519989-19.6870117-.0299988-5.690918,2.0800018-7.9692383,4.0650024-8.2060547,1.9360046-.2280273,3.5870056,1.3461914,4.2129974,4.0097656.5762024,1.9785156.3881226,4.1015625-.5269928,5.9482422-.3962708.6347656-.5246582,1.4008789-.3569946,2.1298828.5198822,1.3588867,1.2668457,2.6196289,2.2089996,3.7280273,1.3079987-5.8608398,2.7200012-11.2519531,3.8829956-15.6938477l.4290009-1.6391602c4.3190002-16.5419922,8.9250031-23.3652344,15.4219971-29.5571289,4.074585-3.9775391,9.6578064-6.019043,15.3370056-5.6079102h.006012c5.6791992-.4111328,11.2624207,1.6303711,15.3370056,5.6079102,3.4937439,3.2490234,6.4325562,7.0473633,8.7000122,11.2451172,2.5549927,4.7167969,4.6900024,10.5361328,6.7200012,18.3120117l.4330139,1.6547852c1.7000122,6.4902344,4.0180054,15.3378906,5.6889954,24.6000977,3.7170105,3.1079102,9.8540039,8.8359375,11.9890137,14.3359375,2.0589905,5.3061523.8999939,8.1860352-.868988,9.1162109-1.723999.8999023-3.8299866.0239258-5.3659973-2.2431641h0c-1.2447205-1.6430664-1.8268433-3.6933594-1.631012-5.7451172.1442871-.734375-.0089417-1.496582-.4259949-2.1181641-.5750122-.706543-1.2617493-1.3149414-2.0329895-1.7998047.2160034,2.1000977.3710022,4.1337891.4639893,6.0751953,3.4330139,3.6479492,7.6589966,8.8701172,9.0469971,13.6728516,1.5799866,5.4667969.17099,8.2329102-1.6749878,9-1.7999878.7470703-3.8179932-.315918-5.1459961-2.7089844-1.0944214-1.7475586-1.4923706-3.8422852-1.1149902-5.8691406.2082825-.71875.1230774-1.4907227-.2369995-2.1469727-.2917175-.4560547-.6435547-.8706055-1.04599-1.2329102-.2892456,3.5737305-.9909058,7.1015625-2.0910034,10.5141602-3.4372253,10.4916992-10.2735291,19.5380859-19.428009,25.7089844,2.3779907,1.2001953,5.9299927,3.355957,7.3059998,6.0488281.6596375.9609375.728302,2.2094727.178009,3.2368164-.9880066,1.5-3.2650146,1.3408203-5.8999939,1.1621094-.8210144-.0571289-1.67099-.1137695-2.4370117-.1137695-2.0899963,0-3.6520081.0791016-5.0310059.1499023-1.0820007.0561523-2.0169983.1000977-3,.1000977-.2749939,0-.5220032.0058594-.7420044.0131836-.8668213.1645508-1.7617188-.0698242-2.4360046-.6391602-.6799927-.7241211-.644989-1.7631836-.5289917-3.0429688.0483704-.5488281.1515503-1.0908203.3080139-1.6191406-3.3068848.8452148-6.7731323.8452148-10.0800018,0,.1567841.527832.259964,1.0703125.3079987,1.6191406.1159973,1.2797852.151001,2.3188477-.529007,3.0429688-.5151825.4887695-1.21875.7275391-1.9250641.652832ZM105.5849915,183.1740112c.7107849-.0004883,1.287384.5751953,1.2878723,1.2861328.0002747.4008789-.1864014.7792969-.5048828,1.0229492-.8030396.7910156-1.2752991,1.8574219-1.3210144,2.9838867-.0379944.4150391-.0509949.7001953-.053009.887207.125,0,.2619934,0,.3850098-.0087891.2409973-.0048828.5119934-.0131836.8129883-.0131836.9129944,0,1.8169861-.0458984,2.8640137-.1000977,1.4089966-.0732422,3.0069885-.1547852,5.1629944-.1547852.8540039,0,1.7479858.0610352,2.6119995.1210938,1.166687.1425781,2.3467407.1367188,3.5119934-.0170898-.0576172-.2246094-.1429443-.4414062-.2539978-.6450195-1.3779907-2.7001953-6.42099-5.1518555-8.2489929-5.8710938-.6612854-.2607422-.9860535-1.0078125-.7254028-1.6694336.1152344-.2919922.3334045-.5322266.6134033-.6748047,13.4720154-7.9707031,21.9467773-22.2636719,22.4770203-37.9082031.0375671-.7099609.6434021-1.2548828,1.3532104-1.2172852.2585449.0136719.5069885.1049805.7127991.262207,1.4122314.9643555,2.6329651,2.1826172,3.6000061,3.5927734.6499023,1.1484375.8460999,2.4985352.5499878,3.7841797-.299408,1.4716797-.0057983,3.0024414.8169861,4.2587891.7390137,1.3310547,1.5620117,1.7250977,1.9089966,1.5820312.5310059-.2211914,1.3169861-2.0161133.1919861-5.9121094-1.006012-3.480957-4.1210022-8.0839844-8.7709961-12.9638672-.2150574-.2250977-.3408813-.5209961-.3540039-.8320312-.1210022-2.8261719-.381012-5.8671875-.7739868-9.0390625-.0875549-.7045898.4128418-1.347168,1.1176758-1.4345703.281189-.0351562.5660706.0239258.8103333.1674805,2.631012,1.5458984,4.2909851,2.8442383,5.0740051,3.9692383.7492065,1.0859375,1.0645752,2.4130859.8840027,3.7202148-.1681824,1.4931641.2598572,2.9916992,1.1910095,4.1708984.8540039,1.2587891,1.7080078,1.5800781,2.0419922,1.3999023.5100098-.2661133,1.1329956-2.1240234-.3340149-5.8999023-2.0700073-5.3339844-8.7999878-11.2788086-11.5929871-13.5869141-.2354736-.1948242-.3939209-.4672852-.446991-.7680664-1.6589966-9.3251953-4.0109863-18.2998047-5.7279968-24.8608398l-.4330139-1.6572266c-4.1640015-15.9511719-8.54599-22.4711914-14.7080078-28.3452148-3.5339355-3.4106445-8.3303833-5.1928711-13.2340088-4.9169922l-.1650085.0200195c-.1104736.0151367-.2225342.0151367-.3330078,0l-.1690063-.0229492c-4.9018097-.2685547-9.6944275,1.5141602-13.2290039,4.9208984-6.1609955,5.875-10.5429993,12.3950195-14.7080078,28.3452148l-.4290009,1.6420898c-1.3289948,5.0732422-2.9830017,11.3862305-4.427002,18.2001953-.1470032.6948242-.829483,1.1391602-1.5243378.9921875-.2778625-.059082-.5284576-.2080078-.7126617-.4243164-2.5429993-2.980957-4.0279999-5.2822266-4.4140015-6.8369141-.3134155-1.28125-.1350098-2.6333008.5-3.7890625.6888733-1.3349609.8236237-2.8881836.375-4.3217773-.3480072-1.4829102-1.0279999-2.0859375-1.4060059-2.0419922-.5709991.0649414-1.8170013,1.5810547-1.8000031,5.6337891.0370026,6.9121094,5.9380035,16.8442383,7.1210022,18.7670898.1624298.2631836.2242279.5766602.173996.8818359-.6999969,4.2192383-1.1880035,8.2231445-1.4629974,11.8999023-.0258026.3427734-.1878662.6611328-.4499969.8837891-3.2220001,2.737793-8.9089966,8.0571289-10.8000031,12.9189453-1.4680023,3.7797852-.8439941,5.6381836-.3339996,5.9057617.3339996.1757812,1.1880035-.1459961,2.0420074-1.4072266.9306488-1.1787109,1.3586578-2.6767578,1.1909943-4.1689453-.180481-1.3071289.1348877-2.6342773.8840027-3.7202148.8000031-1.1518555,2.5220032-2.4848633,5.2590027-4.0771484.6147461-.3569336,1.4023438-.1479492,1.7591553.4667969.1116943.1928711.1716003.4106445.1738434.6333008.0119934,1.7519531.0839996,3.4589844.2140045,5.0717773.0152588.2050781-.019043.4111328-.1000061.6000977-1.6759949,3.9731445-4.4089966,11.4208984-3.875,16.7001953.4080048,4.0341797,1.8070068,5.4057617,2.3829956,5.4140625h0c.3769989,0,.9900055-.6728516,1.1779938-2.1782227.2950287-1.4731445-.0036163-3.003418-.8309937-4.2578125-.7541962-1.0825195-1.0753021-2.4082031-.8999939-3.7158203.2534637-1.269043.72258-2.4848633,1.3869934-3.5952148.337738-.625,1.1180267-.8574219,1.7428284-.5195312.3025665.1630859.5269928.4414062.6231689.7714844.1470032.5.276001.9189453.3999939,1.2998047,3.4752808,10.6850586,10.6978302,19.7529297,20.3349915,25.5297852.6315918.3237305.8812256,1.0981445.5575714,1.7294922-.1758575.3432617-.4965515.5893555-.8735657.6704102-1.6000061.3461914-6.052002,1.8081055-7.3809967,4.4082031-.3264313.5981445-.6023865,1.222168-.8249969,1.8662109.7602692.0688477,1.5237885.0952148,2.2870026.0791016,2.0659943,0,4.6360016.078125,6.8999939.1450195,1.8919983.0581055,3.6799927.1098633,4.8659973.1098633.3000031,0,.5720062.0068359.8130035.0131836.1239929,0,.2599945.0068359.3849945.0087891,0-.190918-.0149994-.472168-.0529938-.887207-.0451508-1.1342773-.5232697-2.2075195-1.3359985-3-.5039062-.3857422-.6475067-1.0834961-.3370056-1.637207.3116302-.5571289.9835358-.8027344,1.5809937-.578125,2.3694.847168,4.8544769,1.3271484,7.3690033,1.4228516h.0339966c2.5144043-.0952148,4.9993286-.5756836,7.3680115-1.4248047.1535339-.0498047.315033-.0698242.4760742-.0600586ZM61.821991,157.8742065c.0772247.4169922.2366486.8149414.4689941,1.1699219-.159317-.3828125-.3156586-.7719727-.4689789-1.1674805l-.0000153-.0024414Z"/>
              </g>
              <g id="_グループ_1642" data-name="グループ_1642">
                <path id="_パス_168" data-name="パス_168" class="cls-9" d="M76.6520386,67.9708862l8.2000122-11.9350586-1.2000122-4.7431641s-3.8160095-9.8061523,1.9150085-21.9638672c4.6470032-9.8569336,8.2749939-11.5339355,8.2749939-11.5339355l-4.7869873,1.3781738,3.9880066-8.2490234s-15.151001,5.2800293-18.2590027,35.6557617c-3.0080261,29.3833008,1.867981,21.3911133,1.867981,21.3911133Z"/>
                <path id="_パス_169" data-name="パス_169" d="M75.3930359,70.2496948c-.2070923,0-.4127808-.0341797-.6090088-.1000977-1.7330017-.5839844-3.3999939-2.9438477-1.2810059-23.7001953.8999939-8.8369141,3.4729919-21.2001953,10.57901-29.8999023,4.3559875-5.3369141,8.3680115-6.7790527,8.5369873-6.8391113.6705933-.2338867,1.4039001.119873,1.6378784.7905273.1125793.3227539.0921021.6767578-.0568848.984375l-2.7349854,5.6560059,2.019989-.5810547c.6590576-.1940918,1.3558044.1555176,1.5939941.8000488.23526.6308594-.0667725,1.3354492-.6860046,1.6000977-.2160034.1201172-3.4899902,2.065918-7.6629944,10.9182129-2.2129211,4.6098633-3.2416077,9.6987305-2.9930115,14.8061523.0824585,2.090332.457428,4.1586914,1.1140137,6.1450195.0184937.0488281.0341797.0991211.0469971.1499023l1.2000122,4.7460938c.0899048.3583984.0218201.7382812-.1870117,1.0429688l-8.177002,11.9047852c-.4712219.8803711-1.3478088,1.4707031-2.3409729,1.5761719ZM89.993042,14.2745972c-1.5017395,1.201416-2.8636475,2.5681152-4.0599976,4.0739746-6.6000061,8.2102051-9.0109863,19.9558105-9.8710022,28.361084-1.5050049,14.7099609-.9309998,19.2167969-.5,20.5830078h0c.0100098-.0161133.0239868-.0380859.0339966-.0517578l7.8659973-11.4550781-1.0360107-4.1108398c-.3909912-1.0600586-3.7080078-10.828125,1.9809875-22.8999023,1.3339233-2.9467773,2.9764404-5.7436523,4.8999939-8.3439941-.6983032.1325684-1.3718872-.3259277-1.5044861-1.0244141-.0513-.2702637-.014679-.5498047.1044922-.7976074l2.0860291-4.3344727Z"/>
              </g>
              <g id="_グループ_1643" data-name="グループ_1643">
                <path id="_パス_170" data-name="パス_170" class="cls-9" d="M109.9380188,29.3287964c5.7309875,12.1582031,1.9150085,21.9638672,1.9150085,21.9638672l-1.2000122,4.7451172,8.2000122,11.9331055s4.8760071,7.9921875,1.868988-21.3901367c-3.1090088-30.3759766-18.2600098-35.6560059-18.2600098-35.6560059l3.9890137,8.2487793-4.7869873-1.3779297s3.6269836,1.6762695,8.2739868,11.5332031Z"/>
                <path id="_パス_171" data-name="パス_171" d="M120.1110229,70.2477417c-.9918213-.1064453-1.8668213-.6962891-2.3370056-1.5761719l-8.178009-11.9072266c-.2090454-.3041992-.2771606-.684082-.1870117-1.0419922l1.2000122-4.7460938c.0128784-.0517578.0289001-.1020508.0480042-.1518555.0350037-.0888672,3.526001-9.4799805-1.8800049-20.9482422h0c-4.1730042-8.8540039-7.446991-10.8000488-7.6629944-10.9199219-.6196289-.2641602-.921814-.9689941-.6860046-1.6000977.2389526-.6437988.9350281-.9931641,1.5939941-.8000488l2.019989.5820312-2.7349854-5.6550293c-.3096619-.6391602-.0425415-1.4084473.5966492-1.7180176.3075256-.1489258.6617126-.1694336.9843445-.0568848.1690063.059082,4.1809998,1.5,8.5369873,6.8391113,3.9219971,4.8000488,8.9400024,13.8928223,10.57901,29.9001465,2.1239929,20.7529297.4519958,23.1152344-1.2810059,23.7001953-.1971436.0668945-.4038696.1005859-.611969.1000977ZM112.0460205,55.7868042l7.8659973,11.4541016c.0119934.0180664.0230103.0341797.0339966.0517578.4259949-1.3662109,1-5.8720703-.5-20.5820312-.8599854-8.4082031-3.2709961-20.1508789-9.8710022-28.3630371-1.1963806-1.5061035-2.5582581-2.8730469-4.0599976-4.0749512l2.1000061,4.3391113c.3087158.6396484.0404358,1.4084473-.5992126,1.717041-.2487488.1201172-.5295105.1569824-.8007812.1049805,1.9234314,2.6005859,3.5659485,5.3974609,4.8999939,8.3442383h0c5.6889954,12.0668945,2.3720093,21.8378906,1.9809875,22.8999023l-1.0499878,4.1088867Z"/>
              </g>
            </g>
            <g id="_グループ_1645" data-name="グループ_1645">
              <path id="_パス_172" data-name="パス_172" class="cls-9" d="M124.053009,142.0509644s-4.3619995,10.4428711-10.7529907,10.4428711-5.618988-7.5761719-11.0809937-5.5151367c-3.9379883,1.487793-1.3699951,8.7270508,4.2600098,9.9072266,5.0219116,1.2109375,10.3185425.4018555,14.75-2.2529297"/>
              <path id="_パス_173" data-name="パス_173" d="M111.2390137,158.678894c-1.6886292-.0058594-3.3721619-.1855469-5.0239868-.5361328-3.7800903-.8217773-6.6422424-3.9204102-7.1619873-7.7539062-.2880859-1.9829102.8385315-3.9003906,2.7109985-4.6137695,3.6839905-1.3911133,5.3880005.777832,6.7579956,2.5200195,1.2290039,1.5629883,2.2900085,2.9130859,4.7780151,2.9130859,4.5400085,0,8.4450073-6.9677734,9.5660095-9.652832.2739868-.6557617,1.0275269-.9648438,1.6831055-.690918.6555481.2739258.9648743,1.0273438.6908875,1.6831055h0c-.1919861.4580078-4.7749939,11.2338867-11.9400024,11.2338867-3.7380066,0-5.5079956-2.2509766-6.7999878-3.8999023-1.4179993-1.7998047-2-2.3930664-3.8269958-1.7001953-.7963867.3198242-1.2428894,1.1704102-1.0539856,2.0078125.4198608,2.6967773,2.4564819,4.8569336,5.1239929,5.4350586,4.698761,1.1547852,9.6636047.4042969,13.8110046-2.0878906.6047363-.3725586,1.3971863-.1845703,1.7699585.4199219.3728027.6049805.1847839,1.3974609-.4199524,1.7700195h0c-3.2082214,1.9638672-6.9036255,2.9868164-10.6650696,2.9526367Z"/>
            </g>
            <path id="_パス_174" data-name="パス_174" d="M116.6320038,44.2028198c-5.6759949-.1420898-10.519989,1.855957-14.8129883,4.527832-2.4712219,1.5395508-5.5804443,1.6264648-8.1340027.2280273-4.3859863-2.5458984-9.1369934-4.8999023-14.8129883-4.7558594-11.3450012.2832031-20.552002,8.4541016-20.8739929,18.5209961-.3439941,10.7719727,9.4299927,19.6318359,21.4909973,19.6318359,5.0901184.0219727,10.0570374-1.5649414,14.1919861-4.5332031,2.4663696-1.5639648,5.5912781-1.6508789,8.1409912-.2270508,4.1412354,2.9838867,9.0891113,4.6430664,14.1919861,4.7597656,12.0610046,0,21.8349915-8.8588867,21.4909973-19.6318359-.3200073-10.0668945-9.5279846-18.237793-20.8729858-18.5205078Z"/>
            <circle id="_楕円形_43" data-name="楕円形_43" class="cls-7" cx="79.4890003" cy="63.2759876" r="9.1009998"/>
            <circle id="_楕円形_44" data-name="楕円形_44" class="cls-7" cx="116.0140018" cy="63.2759876" r="9.1009998"/>
            <circle id="_楕円形_45" data-name="楕円形_45" cx="79.4890013" cy="63.2759657" r="5.6859999"/>
            <circle id="_楕円形_46" data-name="楕円形_46" cx="116.0140028" cy="63.2759657" r="5.6859999"/>
            <g id="_グループ_1649" data-name="グループ_1649">
              <path id="_パス_178" data-name="パス_178" d="M83.1929932,181.3361206l6.7250061,2.9921875s4.4309998,6.2719727-.6059875,6.1591797-15.3120117,1.1000977-15.3999939-1.2329102,2.9699707-7.1855469,9.2809753-7.918457Z"/>
              <path id="_パス_179" data-name="パス_179" d="M79.7200012,191.9879761c-4.1489868,0-7.0100098-.4750977-7.0920105-2.690918-.1059875-2.8671875,3.2839966-8.4091797,10.4160156-9.2431641.2289124-.0273438.4609375.0073242.6719971.1000977l6.7250061,2.9912109c.2119141.0947266.3943481.2451172.5280151.4350586.7000122.9868164,2.8770142,4.375,1.6870117,6.6098633-.3999939.7460938-1.2999878,1.6210938-3.3739929,1.5742188-1.2890015-.0288086-2.9559937.0322266-4.7179871.1000977-1.7320557.0634766-3.3700562.1235352-4.8440552.1235352ZM75.2070007,188.960144c1.2319946.6289062,6.4169922.4379883,9.2609863.3330078,1.7999878-.0649414,3.506012-.1289062,4.8720093-.1000977.6749878.0131836.9949951-.1181641,1.0450134-.2119141.2579956-.4819336-.375-2.1870117-1.3250122-3.6328125l-6.0599976-2.7001953c-5.2640076.7695312-7.6210022,4.6328125-7.7919922,6.3115234l-.0010071.0004883ZM75.197998,189.2033081h0Z"/>
            </g>
            <g id="_グループ_1650" data-name="グループ_1650">
              <path id="_パス_180" data-name="パス_180" d="M112.3249817,181.3361206l-6.7250061,2.9921875s-4.4309998,6.2719727.6069946,6.1591797,15.3120117,1.1000977,15.3999939-1.2329102-2.9719543-7.1855469-9.2819824-7.918457Z"/>
              <path id="_パス_181" data-name="パス_181" d="M115.7969971,191.9879761c-1.473999,0-3.1109924-.0610352-4.8429871-.125-1.7630005-.0639648-3.427002-.125-4.7179871-.1000977-2.0639954.0449219-2.9779968-.8300781-3.3739929-1.5751953-.5769958-1.0849609-.4330139-2.5708008.4299927-4.4199219.3597717-.762207.7801208-1.4946289,1.2569885-2.1899414.1338501-.1894531.3162231-.3393555.5280151-.434082l6.7250061-2.9921875c.2113037-.0917969.4430847-.1264648.6719971-.1000977,7.131012.8330078,10.5209961,6.375,10.4159851,9.2451172-.0820312,2.2143555-2.9440308,2.6914062-7.0930176,2.6914062ZM106.9530029,189.1881714c1.2120056,0,2.6199951.0541992,4.1000061.1069336,2.8439941.1000977,8.0289917.2998047,9.2609863-.3330078-.17099-1.6801758-2.5280151-5.5419922-7.7929993-6.3071289l-6.0599976,2.7001953c-.9490051,1.4448242-1.5820007,3.1499023-1.3250122,3.6328125.0499878.0927734.3680115.2270508,1.0450134.2119141.243988-.0097656.5029907-.0151367.7709961-.0151367l.0010071.003418Z"/>
            </g>
            <g id="_グループ_4775" data-name="グループ_4775">
              <g id="_グループ_4742" data-name="グループ_4742">
                <path id="_パス_622" data-name="パス_622" class="cls-8" d="M94.4420166,68.4371948s-4.6400146,7.4711914-6.4310303,9.7998047c-3.967041,5.1640625,1.7399902,7.1782227,3.3399658,5.5249023.5653076-.5952148,1.0938721-1.2236328,1.5830078-1.8828125.5849609-.7460938,1.0460205-.7050781,2.0200195-.1660156.8580322.4780273,1.0699463,1.0058594.223999,2.269043-1.1379395,1.7001953-2.5119629,3.7338867-2.8179932,4.2329102-1.0670166,1.7387695-.4699707,2.9208984,1.1929932,3.9179688,2.2640381,1.355957,5.0789795-1.2192383,8.855957-7.7001953s4.9899902-9.2290039,3.776001-10.7348633c-.9310303-1.1557617-4.4840088-2.5478516-6.0849609-3.1298828-.4160156-.1518555.8669434-1.762207-1.0319824-2.7529297-2.881958-1.4990234-4.05896-.5839844-4.6259766.6220703Z"/>
                <path id="_パス_623" data-name="パス_623" d="M94.7700195,93.6398315c-.638916-.0024414-1.2647705-.1811523-1.80896-.5161133-1.0540771-.5205078-1.848999-1.449707-2.1999512-2.5717773-.2042236-1.0219727.019165-2.0830078.618042-2.9360352.2669678-.4350586,1.2340088-1.875,2.256958-3.3999023l.5860596-.8730469c.1177979-.1699219.2182617-.3510742.3000488-.5410156-.032959-.0219727-.0760498-.0488281-.131958-.0791016-.1514893-.0888672-.3096924-.1665039-.4730225-.230957-.0219727.0239258-.0489502.0561523-.0820312.1000977l-.1719971.2231445c-.4616699.612793-.9592285,1.1972656-1.4899902,1.7509766-1.2349854,1.2749023-3.8000488,1.1928711-5.3769531-.1689453-.6999512-.6000977-2.7519531-2.8911133.3000488-6.8579102,1.657959-2.1582031,5.9150391-8.9848633,6.3330078-9.6572266.3726807-.8505859,1.0806885-1.5087891,1.9560547-1.8188477,1.144043-.3862305,2.5229492-.1430664,4.2139893.7387695,1.1611328.5078125,1.8426514,1.7255859,1.6679688,2.980957,3.0999756,1.1801758,5.0510254,2.2548828,5.8129883,3.2001953,1.7530518,2.1767578.2249756,5.3378906-3.6789551,12.0380859-3.092041,5.2998047-5.4680176,7.9238281-7.6999512,8.5-.3043213.0786133-.6171875.1181641-.9313965.1186523ZM93.8430176,80.1627808c.5944824.0380859,1.1694336.2265625,1.6710205.5478516.6304932.2939453,1.104126.8447266,1.3000488,1.512207.1187744.859375-.1265869,1.7294922-.677002,2.3999023l-.5870361.8740234c-.9210205,1.3720703-1.9639893,2.9257812-2.2060547,3.3208008-.2607422.3359375-.3834229.7587891-.3430176,1.1821289.1090088.4438477.68396.8691406,1.1469727,1.1459961.2921143.1850586.6497803.2363281.9820557.1401367,1.0500488-.269043,2.993042-1.7788086,6.2869873-7.4301758,2.5389404-4.3540039,4.7449951-8.3520508,3.875-9.4331055-.3869629-.4790039-2.0810547-1.5-5.5830078-2.7700195-.4820557-.1757812-1.0080566-.6337891-.7740479-1.8178711.1080322-.5507812.1409912-.7158203-.4000244-1-1.4300537-.7470703-2.1259766-.7001953-2.4129639-.6000977-.1619873.0541992-.4000244.1860352-.6390381.6831055-.0192871.0400391-.0406494.0791016-.0639648.1171875-.19104.3081055-4.69104,7.546875-6.5,9.8999023-.7330322.953125-1.7869873,2.7001953-.6169434,3.7138672.6055908.5498047,1.4859619.6728516,2.2189941.3100586.4705811-.4931641.9119873-1.0136719,1.3220215-1.5581055l.1810303-.2338867c.4073486-.6103516,1.0855713-.9848633,1.8189697-1.0048828v.0009766ZM94.4429932,68.43573h0Z"/>
              </g>
              <path id="_パス_24806" data-name="パス_24806" d="M97.6339111,78.8600464l-1.4849854-.7709961c-.506958-.2001953-.9389648-.5668945-.5999756-1.2998047l.9899902-1.8779297c.3131104-.5078125.9783936-.6655273,1.486084-.3525391.0076904.0048828.0153809.0097656.0229492.0146484l1.6070557.7441406c.3845215.0991211.6157227.4916992.5163574.8759766-.0212402.0820312-.0568848.1601562-.1053467.2299805l-.9659424,1.9379883c-.2597656.5400391-.9080811.7670898-1.4481201.5073242-.0059814-.0029297-.012085-.0058594-.0180664-.0087891Z"/>
            </g>
          </g>
        </g>
      </g>
      <g id="_グループ_6850" data-name="グループ_6850">
        <g class="cls-6">
          <g id="_グループ_3941" data-name="グループ_3941">
            <path id="_パス_4178" data-name="パス_4178" class="cls-5" d="M53.0279999,185.3179626c0,5.5940857-4.5349121,10.1289978-10.1289978,10.1289978s-10.1289978-4.5349121-10.1289978-10.1289978,4.5348969-10.1289978,10.1289978-10.1289978h0c5.5940857,0,10.1289978,4.5349121,10.1289978,10.1289978"/>
            <path id="_パス_4179" data-name="パス_4179" class="cls-2" d="M42.8990021,196.3199768c-6.0751343,0-11-4.9248657-11-11s4.9248657-11,11-11,11,4.9248657,11,11h0c-.0066071,6.0723877-4.9276123,10.9933777-11,11M42.8990021,176.0619812c-5.1130524,0-9.2579956,4.144928-9.2580109,9.2579956,0,5.1130676,4.1449432,9.2579956,9.2579956,9.2579956s9.2580109-4.144928,9.2580109-9.2579956h0c-.0060577-5.1105347-4.1474609-9.2519226-9.2579956-9.2579956"/>
            <path id="_パス_4180" data-name="パス_4180" class="cls-5" d="M128.1739807,185.3179626c0,5.5940857-4.5349121,10.1289978-10.1290283,10.1289978-5.5940552,0-10.1289673-4.5349121-10.1289673-10.1289978s4.5349121-10.1289673,10.1289673-10.1289978c5.5941162-.0000305,10.1290283,4.5348816,10.1290283,10.1289673v.0000305"/>
            <path id="_パス_4181" data-name="パス_4181" class="cls-2" d="M118.0450134,196.3199768c-6.0751343,0-11-4.9248657-11-11s4.9248657-11,11-11,11,4.9248657,11,11h0c-.0065918,6.0723877-4.9276123,10.9933777-11,11M118.0450134,176.0619812c-5.1130371,0-9.2579956,4.144928-9.2579956,9.2579956s4.1449585,9.2579956,9.2579956,9.2579956,9.2579956-4.144928,9.2579956-9.2579956h0c-.0060425-5.1105347-4.1474609-9.2519226-9.2579956-9.2579956"/>
            <path id="_パス_4182" data-name="パス_4182" class="cls-3" d="M39.3360009,110.3199463v16.6429996H13.9070001L.8720002,154.4559479v30.8639984h27.7000008c.0661278-7.9112015,6.5330315-14.2708893,14.4442368-14.2047653,7.8178444.0653534,14.1394119,6.3869171,14.2047615,14.2047653h46.5c0-7.9117584,6.4137421-14.3255005,14.3255005-14.3255005s14.3255005,6.4137421,14.3255005,14.3255005h16.0579987v-75H39.3360009Z"/>
            <path id="_パス_4183" data-name="パス_4183" class="cls-4" d="M148.427002,186.1909714h-16.0579987c-.4810333,0-.8710022-.3899612-.8710022-.8709946v-.0000076c0-7.4304428-6.0235596-13.4540024-13.4540024-13.4540024s-13.4540024,6.0235596-13.4540024,13.4540024h0c0,.481041-.3899612.8710022-.8709946.8710022h-46.5000076c-.481041,0-.8709984-.3899612-.8709984-.8710022h0c-.0009727-7.4304428-6.0253258-13.4532127-13.4557648-13.4522362-7.4290619.0009727-13.4512634,6.0231743-13.4522362,13.4522362.0000019.481041-.3899574.8710022-.8709984.8710022H.871c-.4810379,0-.870997-.3899536-.871-.8709946v-30.8640022c-.0000771-.1518898.0395677-.3011627.115-.4329987l13.036-27.4930019c.155076-.2706642.443058-.4377327.7550001-.4379997h24.559v-15.7719997c0-.4810394.3899574-.8709991.8709984-.871h109.0910034c.4810333-.0000012.8710022.3899578.8710022.8709978v75.0000044c0,.481041-.3899536.8710022-.8710022.8710022h0M133.2149963,184.4489746h14.3410034v-73.258H40.2070007v15.772c0,.481039-.3899574.8710003-.8709984.8710003H14.4110003l-12.6690003,26.8539982v29.7610016h25.9860007c.5183144-8.3787079,7.7307777-14.750824,16.1094894-14.2325096,7.6556587.473587,13.7589226,6.5768471,14.2325096,14.2325096h44.7999954c.5183334-8.3787079,7.7308121-14.7508049,16.10952-14.2324753,7.655632.4735985,13.758873,6.5768433,14.2324753,14.2324753"/>
          </g>
        </g>
      </g>
      <g id="_グループ_6851" data-name="グループ_6851">
        <path id="_パス_172-2" data-name="パス_172-2" class="cls-9" d="M116.3462448,109.4978831s11.7993458-1.3049038,15.0488453,4.5575952c3.2494995,5.862499-4.1002748,9.0041553.5734452,12.9642855,3.3648451,2.8554949,8.7000853-3.1797952,6.9191153-8.9435053-1.441565-5.2221963-4.8760394-9.6695445-9.5640709-12.38465"/>
        <path id="_パス_173-2" data-name="パス_173-2" d="M138.1128974,112.7968232c.8537159,1.5513244,1.5450879,3.1865948,2.0631343,4.8798352,1.1672383,3.8850455-.2195725,8.0853246-3.4706199,10.5115806-1.6724004,1.2729368-4.0042997,1.2144163-5.6107446-.1408053-3.1453203-2.6740599-2.0270303-5.3367896-1.1248651-7.4793846.8085699-1.9214301,1.5073751-3.5807047.2424952-5.8627045-2.3081145-4.164124-10.6812056-4.2058754-13.71858-3.8662998-.7404477.0819262-1.4071136-.451912-1.4890396-1.1923602-.0819259-.7404482.4519123-1.4071127,1.19236-1.4890389h0c.5178753-.0582843,12.7319103-1.3311097,16.3747453,5.241015,1.9002302,3.4282502.7345151,6.1973352-.1155452,8.217255-.9330398,2.2169-1.175125,3.0533949.3839452,4.376225.6992234.5678977,1.7072838.5442126,2.3790643-.055897,2.2601389-1.757151,3.2067014-4.7235026,2.3820798-7.465-1.6344154-5.2867543-3.7989959-10.0668948-8.0962255-12.481076-.649508-.364885-.8802398-1.1872113-.5153556-1.8367188.364885-.649508,1.1872116-.8802411,1.8367197-.5153561,3.4110357,1.9194061,5.3197569,5.6106059,7.2864317,9.1587304Z"/>
      </g>
    </g>
    <g id="_レイヤー_1" data-name="レイヤー_1">
      <path id="_パス_105297" data-name="パス_105297" class="cls-7" d="M64.4485519,128.6455409c.5389055.5417629,1.0101368,1.1468668,1.4033794,1.8020665l.1594755.0159475.8930586-.5262673.0159479-.1594749c-.4012956-.6490658-.8776902-1.248574-1.4193272-1.7861189h-.1594755l-.8611644.5262672-.0318942.12758ZM62.8697492,129.5226528c.5399367.5623606,1.0159466,1.1827772,1.4193272,1.8499089l.1594755.0159475.9249543-.5422146.0318957-.1594748c-.4176252-.6603315-.9099266-1.2703569-1.4671708-1.8180141h-.1594755l-.8771108.5103196-.0318957.1435275ZM54.9757415,130.5592397l-.0797378,2.2645434.1275798.1116323c.9568501.0956849,1.9934364.1435273,2.886495.1435273,1.6723014.0130118,3.3425328-.1203925,4.9915664-.3986865l.1275798-.1116323-.0637899-2.2485965-.1116319-.0956849c-1.6314903.2458663-3.2779779.379077-4.9277749.3986875-.9409022,0-1.8818044-.0478424-2.838653-.1435273l-.1116335.079737ZM53.1417799,138.325668c.1913697,1.7861188,1.0525349,3.7157653,5.8208343,3.7157653,1.8584849.016284,3.716474-.068897,5.565674-.2551596l.0956856-.1435277-.2232654-2.3921236-.1435277-.1116327c-1.6996436.2583086-3.4159483.391562-5.1350925.3986873-2.6632311,0-3.5243955-.2551596-3.795503-1.9136994l-.1275798-.0637899-1.9774885.6538469-.079737.1116335ZM80.238688,140.7018437v-3.285183h1.4193257l2.0253321.0478428.0956841-.0797378v-1.8020667l-.0956841-.0797378-2.0253321.0478428h-1.4193227v-2.6951257h1.8339608l2.136964.0478424.0956841-.0797374v-1.8020667l-.0956841-.0797374-2.136964.0478424h-2.7429673l1.5469055-1.0365869-.0159479-.1594749c-.6220789-.7098326-1.3229694-1.346518-2.0891205-1.8977513l-.1754234-.0159475-1.6266448,1.1322719-.0318957.1435275c.6824971.5410994,1.3029213,1.1561747,1.8499087,1.8339616h-2.5356483l-2.1688597-.0478424-.0956841.0956849v1.7701713l.1116319.0956849,2.1529119-.0478424h1.6744853v2.6951264h-1.2598502l-2.1050683-.0478428-.0956841.0956849v1.7701717l.1116319.0956849,2.0891205-.0478428h1.2598532v3.285183h-2.5197065l-2.1688597-.047842-.0956841.0956856v1.7701709l.1116319.0956856,2.1529119-.047842h6.953107l2.136964.047842.0956841-.0797378v-1.8020667l-.0956841-.0797378-2.136964.047842h-2.1210192ZM73.5885873,129.9372876l-.0318957-.1594749c-.7189584-.5399812-1.4879444-1.0099164-2.2964395-1.4033791l-.1913712.031895-1.3555373,1.4512217.0318957.12758c.823275.4286994,1.5894352.9591192,2.2804917,1.5788016l.1913712-.031895,1.3714852-1.5947493ZM72.8231084,133.7806332l-.0478436-.1594751c-.7084857-.5029381-1.4610949-.9406265-2.248596-1.3076941l-.1913712.0478424-1.2439054,1.5150117.0478436.1275798c.7882311.4246812,1.5356115.921156,2.2326481,1.4831164l.1913712-.0478428,1.2598532-1.6585382ZM69.3943985,141.9776433l1.7382768,1.1322719.1754234-.0797378c.8712372-1.5180941,1.6230373-3.1016747,2.248596-4.7364052.0257392-.0489873.0368142-.1043553.0318957-.1594748-.0056941-.0945024-.0522723-.1818369-.1275798-.2392125l-1.5469055-1.1960618c-.6721582,1.7874336-1.5328648,3.4981575-2.567547,5.1031968l.0478405.1754234ZM99.3299589,132.584571l2.4080684.0478424.1116319-.1116323v-1.8499091l-.1116319-.1116323-2.4080684.0478424h-3.7317131v-2.503756l-.1116319-.1116324h-2.1848045l-.1116319.1275799v2.4878085h-3.6200812l-2.3761758-.0478424-.1275798.0956849v1.8499091l.1116319.1275798,2.3921236-.0478424h.318951c.2370886,1.1283028.5897969,2.2291756,1.0525342,3.2851834.4557412,1.0210917,1.0633019,1.96738,1.8020651,2.8067588-1.8341798,1.2270153-3.8855127,2.0930154-6.0440975,2.5515992l1.3076938,1.7382768c.0907656.1997664.3236414.2915054.5262671.2073176,2.1457364-.5558024,4.1577943-1.5374275,5.9165177-2.886498,1.7556056,1.3033015,3.7576075,2.2364838,5.884625,2.7429689.0574524.015627.1161459.0262989.1754234.0318957.1435277,0,.2073191-.0797378.318951-.2232654l1.4033809-1.9774885c-2.1561027-.3232095-4.2235994-1.0829174-6.0759962-2.2326489,1.4461174-1.7456804,2.4377559-3.8220992,2.886498-6.044099l.2870492-.0000004ZM96.4753565,132.584571c-.3375604,1.6224795-1.0351476,3.148451-2.0412799,4.4652974-.3871408-.4717537-.7288684-.9790084-1.0206384-1.5150113-.4827519-.9328629-.8419361-1.9246348-1.068482-2.9502857l4.1304004-.0000004ZM118.0225394,141.6746401l1.2439023-1.658539.0159448-.1754226c-.8379818-.8464021-1.8352779-1.5184911-2.9343386-1.9774893-.0797362-1.1960618-.1435277-2.5515984-.1594725-3.9868727.8452151-.0797378,1.6266448-.1913697,2.2804917-.3030024l.0956871-.1275798-.2870492-1.9296449-.1594725-.0797374c-.6219512.0956849-1.291749.1913697-1.9455958.2711075,0-.7654796.0159448-1.5628541.0159448-2.3761762l-.1275828-.12758h-2.1050683l-.1275828.1435275c0,.8930594,0,1.7701713.0318957,2.5675459-1.0844299.0637899-2.1848045.0956849-3.3489707.0956849l-.1116319.0956849.0478405,1.9455936.1116319.1275798c1.0844299-.0159479,2.248596-.0478428,3.3489707-.1275798.0318957,1.180114.0637914,2.248596.1116319,3.2532881-.3318298-.0556069-.6684959-.0769819-1.0046936-.0637899-1.4512214,0-3.0459705.7814267-3.0459705,2.5356513,0,1.7701709,1.5309577,2.4878077,3.1894982,2.4878077,1.6904362,0,2.7908109-.6219527,3.0778662-2.1210162.5919535.4610323,1.1320271.9850637,1.6106939,1.5628534l.1754295-.0318942ZM113.9878261,139.2027787c.0478405.6857418-.1275828.9887443-.9887427.9887443-.7654788,0-1.0046936-.2711075-1.0046936-.5422149,0-.3348974.3348958-.590057.9727979-.590057.3464666-.0230161.6939553.0258495,1.0206384.1435277ZM106.5562956,129.2834405c-.0507119,1.0966352-.205567,2.1859654-.4624787,3.2532881-.3755092,1.8423568-.5678142,3.7173454-.5741106,5.5975697-.0850045,1.3226865.2318538,2.6401717.9090065,3.7795552.2946475.4096771.7564266.6668686,1.2598532.7016889.5611042.0205667,1.0326412-.4176267,1.0532094-.9787308.001095-.0299125.0008699-.0598585-.0006753-.0897512.0896949-1.2058942.3695778-2.3900089.8292703-3.5084477l-.4784235-.2551596c-.2289094.3625833-.4962481.6994274-.7973745,1.0046921-.3030001.3030024-.3986873.2711075-.4784235-.0478428-.0697958-.3248079-.1018984-.6565806-.0956871-.9887443.0268525-1.5164896.2247909-3.0251034.5900555-4.4971923.3356502-1.17567.5441556-2.3839657.6219512-3.6041329l-.0956871-.1435275-2.1688537-.3030022-.1116319.0797374ZM65.1601843,150.9720287l-.0797378,2.2645438.1275798.1116319c.9568501.0956841,1.9934364.1435277,2.886495.1435277,1.6723014.0130126,3.3425313-.1203922,4.9915633-.3986873l.1275798-.1116319-.0637914-2.248596-.1116319-.0956856c-1.6314903.2458656-3.2779794.3790772-4.9277749.3986873-.9409022,0-1.8818044-.047842-2.838653-.1435277l-.1116289.0797378ZM63.3262235,158.7384581c.1913697,1.7861203,1.0525342,3.7157653,5.8208351,3.7157653,1.8584864.0162824,3.716474-.0688985,5.565674-.2551596l.0956841-.1435277-.2232639-2.3921236-.1435277-.1116319c-1.6996436.2583078-3.4159468.3915635-5.135091.3986873-2.6632311,0-3.5243955-.2551596-3.795503-1.9137001l-.1275798-.0637914-1.9774885.6538469-.0797393.111635ZM79.5288725,152.1840384l.1275798,2.0093842.0956841.1116319c.8771108-.0159479,1.7542246-.0637914,2.6153875-.1275798-.4366938,1.8503315-1.1009131,3.6394419-1.9774885,5.3264622l.0318957.1435277,1.9455928.9568501.1594755-.0478436c.8226666-1.7988074,2.6149039-2.9562939,4.5928791-2.9662343,1.1482182.0159479,1.9934364.430583,1.9934364,1.3395895,0,1.3236416-1.6585375,2.4240193-5.9165207,2.4399672l1.1322704,1.9455928c.063326.1776682.244331.2849322.430583.2551596,5.023459-.3030032,7.0009475-2.136964,7.0009475-4.4493514,0-2.4080715-2.1210162-3.4925014-4.0825568-3.4925014-1.2988484-.0280023-2.5816181.2913138-3.7157653.9249543.3235319-.8546201.5951321-1.7280078.8133224-2.6153875,1.435891-.1665749,2.862377-.406097,4.273928-.7176383l.0797362-.1435277-.2232639-2.0572263-.1116319-.0797378c-1.1555306.3070669-2.3266927.551947-3.5084492.7335846.1435277-.7016889.2551596-1.4512214.3827394-2.248596l-.0797362-.1116319-2.248596-.1594755-.1116319.0956856c-.1275798.9409022-.2392118,1.8339608-.3986873,2.6951268-1.0525342.0797378-2.1050683.1116319-3.1894982.1116319l-.1116319.1275828ZM99.1283402,151.1633984c1.3093728.3773373,2.5678755.9128695,3.7476579,1.5947491l.1594725-.0318957,1.0844299-1.8658566-.0318957-.1594755c-1.2248002-.641835-2.5198768-1.1395295-3.859296-1.4831171l-.1594725.0797378-.9887366,1.7382783.0478405.1275798ZM97.7249593,153.1568363c-.4917828,2.2255791-.7377868,4.4984208-.7335831,6.7776836l.1116319.1435277,1.9455958.1754234.1594725-.0797362c1.291749-2.2645438,3.0619153-3.0619184,4.4971919-3.0619184,1.3236447,0,1.6585405.7016905,1.6585405,1.6585375,0,1.5309577-2.3761788,2.3761758-6.6501069,2.5037556l1.3236447,1.9455928c.1275828.1913712.2232639.207316.5103192.207316,4.4493514-.2392118,7.4634262-1.5788012,7.4634262-4.6885632,0-2.0093842-1.4512214-3.6679217-4.1144556-3.6679217-1.723354-.0070873-3.3733654.6967659-4.5609834,1.9455928.1246993-1.147032.337968-2.2826939.6379021-3.3968173l-.0956871-.1435277-1.9934364-.3827394-.1594725.0637945Z"/>
    </g>
  </g>
</svg>