<svg xmlns="http://www.w3.org/2000/svg" width="22.513" height="39.823" viewBox="0 0 22.513 39.823">
  <g id="グループ_23705" data-name="グループ 23705" transform="translate(-267.542 -13.177)">
    <path id="パス_105294" data-name="パス 105294" d="M0,29.475V21.384s3.949.385,3.949-3.082V11.21S3.949,6.683,0,6.683V0S7.6.385,7.6,9.055V19.671a12.134,12.134,0,0,1-1.3,5.507C5.221,27.3,3.308,29.475,0,29.475Z" transform="matrix(-0.891, 0.454, -0.454, -0.891, 287.696, 39.439)" fill="#fff"/>
    <path id="パス_105295" data-name="パス 105295" d="M-7.855,0V-5.93h-2.11V-7h5.38v1.07h-2.1V0Zm5.75,0V-7h4.68v1.07H-.955v1.82h3.22v1.08H-.955v1.96h3.64V0Zm7.36,0V-7h1.15v5.93h3.65V0Z" transform="translate(280 53)" fill="#fff"/>
  </g>
</svg>
