<svg xmlns="http://www.w3.org/2000/svg" xmlns:xlink="http://www.w3.org/1999/xlink" width="807.02" height="185.104" viewBox="0 0 807.02 185.104">
  <defs>
    <clipPath id="clip-path">
      <rect id="長方形_8111" data-name="長方形 8111" width="807.02" height="122.773"/>
    </clipPath>
  </defs>
  <g id="グループ_6842" data-name="グループ 6842" transform="translate(-299 -312.004)">
    <g id="グループ_6631" data-name="グループ 6631" transform="translate(299 312.004)">
      <rect id="長方形_8109" data-name="長方形 8109" width="115.842" height="26.813" transform="translate(255.13 88.701)"/>
      <rect id="長方形_8110" data-name="長方形 8110" width="95.237" height="26.813" transform="translate(265.275 8.638)"/>
      <path id="パス_25283" data-name="パス 25283" d="M0,0V26.9l106.446,8.5V8.5Z"/>
      <path id="パス_25284" data-name="パス 25284" d="M0,85.456l106.446,8.5v-26.9L0,58.552Z" transform="translate(0 28.814)"/>
      <path id="パス_25285" data-name="パス 25285" d="M2.587,29.48l-.043,26.9,98.854,7.9v-26.9Z" transform="translate(1.252 14.507)"/>
      <g id="グループ_4956" data-name="グループ 4956" transform="translate(0 0.001)">
        <g id="グループ_4955" data-name="グループ 4955" clip-path="url(#clip-path)">
          <path id="パス_25286" data-name="パス 25286" d="M195.374.532h-.512v0h-.947L184.449.5l0,.027L111.469.5l-.328,1.046a73.362,73.362,0,0,1-3.53,9.172,81.965,81.965,0,0,1-8.515,14.53c-.458.6-.906,1.174-1.346,1.728-3.571,4.291-10.373,9.2-10.373,9.2l.01.012h-.03V67.912l.84.409c.915.445,1.11.531,7.663-4.067,1.634-1.149,3.484-2.566,5.5-4.209,2.823-2.308,6.065-5.145,9.638-8.436,6.049-5.57,12.368-14.139,18.789-25.482h34.607a56.35,56.35,0,0,1-2.716,14.8c-.422,1.209-.868,2.395-1.319,3.538l-32.694-6.941-5.36,25.25,25.928,5.5a68.022,68.022,0,0,1-12.1,10.434,95.05,95.05,0,0,1-17,9.193,100.738,100.738,0,0,1-13.432,4.56c-3.97.956-5.022,1.192-5.3,1.249H99.029v26.71l.451.439a1.206,1.206,0,0,0,1.043.439,45.664,45.664,0,0,0,6.464-1.188,128.3,128.3,0,0,0,15.807-4.836,123.832,123.832,0,0,0,20.922-10.215,125.686,125.686,0,0,0,22.03-17.05A86.158,86.158,0,0,0,183.967,62a98.491,98.491,0,0,0,7.19-22.6c.009-.025.019-.057.027-.082,4.7-14.418,4.245-36.4,4.223-37.331Z" transform="translate(42.989 0.245)"/>
          <path id="パス_25287" data-name="パス 25287" d="M362.79,26.9l106.446,8.5V8.5L362.79,0Z" transform="translate(178.534 0)"/>
          <path id="パス_25288" data-name="パス 25288" d="M362.79,85.455l106.446,8.5v-26.9l-106.446-8.5Z" transform="translate(178.534 28.814)"/>
          <path id="パス_25289" data-name="パス 25289" d="M365.377,29.48l-.043,26.9,98.854,7.9v-26.9Z" transform="translate(179.785 14.507)"/>
          <path id="パス_25290" data-name="パス 25290" d="M292.938,94.406c-.788-5.622-1.474-11.829-2.04-18.447-.573-6.655-.862-13.462-.862-20.23,0-5.722.237-11.706.7-17.783.472-6.1,1.027-11.843,1.65-17.062.379-3.18.813-5.933,1.316-9.12.322-2.062.673-4.278,1.047-6.861l.236-1.641H270.325l-.473,3.221c-1.447,9.872-2.495,17-3.186,24.626-.737,8.078-1.11,16.6-1.11,25.323,0,9.362.4,18.472,1.188,27.077.794,8.642,2.1,18.778,3.876,30.127l.191,1.212h25.32l-.281-1.673c-1.143-6.837-2.125-13.151-2.913-18.769" transform="translate(130.683 1.605)"/>
          <path id="パス_25291" data-name="パス 25291" d="M553.22,39.317c4.7-14.418,4.245-36.4,4.223-37.333L557.41.533H556.9v0h-.946L546.483.5V.525L473.5.5l-.33,1.046a73.769,73.769,0,0,1-3.53,9.172,82.075,82.075,0,0,1-8.516,14.53c-.181.239-.355.461-.534.691l-.007.01c-.015.021-.033.042-.048.061-.251.325-.5.645-.746.953-3.568,4.293-10.384,9.217-10.384,9.217l.012.012h-.031V67.912l.84.407c.918.445,1.1.539,7.661-4.066,1.638-1.15,3.487-2.566,5.5-4.209,2.831-2.316,6.073-5.152,9.639-8.436,6.05-5.573,12.37-14.142,18.789-25.482h34.6a56.313,56.313,0,0,1-2.714,14.8c-.422,1.209-.868,2.395-1.32,3.536L489.7,37.525l-5.36,25.25,25.925,5.5a68.019,68.019,0,0,1-12.1,10.436,95.174,95.174,0,0,1-17,9.191,100.572,100.572,0,0,1-13.434,4.561c-3.966.956-5.019,1.191-5.3,1.249h-1.364v26.7l.445.437a1.2,1.2,0,0,0,1.048.446,45.437,45.437,0,0,0,6.467-1.188,128.269,128.269,0,0,0,15.807-4.834,123.822,123.822,0,0,0,20.921-10.215,125.728,125.728,0,0,0,22.03-17.05A86.187,86.187,0,0,0,546,62a98.568,98.568,0,0,0,7.191-22.6c.007-.025.019-.057.027-.082" transform="translate(221.15 0.244)"/>
          <path id="パス_25292" data-name="パス 25292" d="M346.908,44.694h25.876V21.681H346.908V2.946l-24.32-.161v18.9H289.464V44.694h33.123V57.331c-1.828-.145-3.7-.23-5.582-.227H317c-33.772-2.681-29.418,29.924-29.418,29.924l.015-.01a46.561,46.561,0,0,0,2.811,14.432l-.051.119a33.245,33.245,0,0,0,2.3,5.1c.146.282.237.443.237.443v0c4.078,6.944,9.3,8.219,13.9,8.219h16.762c2.44.075,4.617.119,6.552.119,1.747,0,3.295-.037,4.678-.119h1.138c12.6,0,11.664-13.059,11.664-13.059v-16.9l25.6,5.139V67.584l-26.279-5.252Zm-24.454,49.8h-9.827l.06-14.858,9.827,1.343Z" transform="translate(141.432 1.37)"/>
          <path id="パス_25293" data-name="パス 25293" d="M521.638,87.3a18.449,18.449,0,0,1,0-26.051,18.355,18.355,0,0,1,31.327,13.025,17.565,17.565,0,0,1-5.383,12.972,18.517,18.517,0,0,1-25.943.054m8.074-17.977a7.044,7.044,0,0,0-2.046,5,6.985,6.985,0,0,0,6.943,6.944,6.857,6.857,0,0,0,4.952-2.046,6.594,6.594,0,0,0,2.1-4.9,7.171,7.171,0,0,0-7.052-7.05,6.677,6.677,0,0,0-4.9,2.046" transform="translate(254.056 27.492)"/>
        </g>
      </g>
    </g>
    <path id="パス_27481" data-name="パス 27481" d="M10.584-9.054a3.664,3.664,0,0,0-3.96-3.762H1.854V0H3.222V-5.274h3.4A3.678,3.678,0,0,0,10.584-9.054Zm-1.368,0A2.414,2.414,0,0,1,6.516-6.5H3.222v-5.094H6.516A2.4,2.4,0,0,1,9.216-9.054ZM23.958,0,20.916-5.814a3.325,3.325,0,0,0,2.79-3.438,3.467,3.467,0,0,0-3.8-3.564H14.994V0h1.368V-5.688H19.44L22.356,0Zm-1.62-9.234a2.255,2.255,0,0,1-2.556,2.34h-3.42v-4.7h3.42A2.268,2.268,0,0,1,22.338-9.234ZM36.558,0V-1.224H29.97V-5.85h5.616V-7.074H29.97v-4.518h6.588v-1.224H28.6V0ZM48.924-3.528a3.229,3.229,0,0,0-1.08-2.52,3.864,3.864,0,0,0-2.322-.918L44.028-7.2a3.455,3.455,0,0,1-1.674-.666,1.889,1.889,0,0,1-.576-1.494c0-1.44.99-2.394,2.718-2.394a3.978,3.978,0,0,1,2.988,1.116l.882-.882a5.217,5.217,0,0,0-3.816-1.4c-2.538,0-4.1,1.422-4.1,3.6a3.054,3.054,0,0,0,.99,2.412,4.508,4.508,0,0,0,2.34.972l1.494.216a2.757,2.757,0,0,1,1.674.63,2.013,2.013,0,0,1,.63,1.6c0,1.512-1.152,2.376-3.042,2.376A4.387,4.387,0,0,1,41.04-2.5l-.918.918A5.548,5.548,0,0,0,44.5.108C47.178.108,48.924-1.278,48.924-3.528ZM61.542,0V-1.224H54.954V-5.85H60.57V-7.074H54.954v-4.518h6.588v-1.224H53.586V0ZM75.654,0V-12.816H74.286V-2.574l-6.8-10.242h-1.3V0h1.368V-10.278L74.358,0ZM88.632-11.592v-1.224H79.848v1.224h3.708V0h1.368V-11.592ZM100.782,0V-1.224H94.194V-5.85H99.81V-7.074H94.194v-4.518h6.588v-1.224H92.826V0Zm13.536-6.408c0-1.962,0-3.834-1.134-5.058a4.245,4.245,0,0,0-3.366-1.35h-4.392V0h4.392a4.245,4.245,0,0,0,3.366-1.35C114.318-2.574,114.318-4.446,114.318-6.408Zm-1.368,0c0,1.782-.018,3.366-.846,4.248a3.2,3.2,0,0,1-2.52.936h-2.79V-11.592h2.79a3.2,3.2,0,0,1,2.52.936C112.932-9.774,112.95-8.19,112.95-6.408Zm21.474,2.862a3.1,3.1,0,0,0-2.088-3.042,2.937,2.937,0,0,0,1.89-2.808c0-2.142-1.548-3.42-3.78-3.42h-4.824V0h4.986C132.876,0,134.424-1.224,134.424-3.546Zm-1.368-.036a2.3,2.3,0,0,1-2.574,2.358H126.99v-4.7h3.492A2.29,2.29,0,0,1,133.056-3.582Zm-.2-5.8c0,1.53-1.1,2.232-2.52,2.232H126.99v-4.446h3.348C131.76-11.592,132.858-10.908,132.858-9.378Zm13.482-3.438h-1.476l-2.988,6.138-3.024-6.138h-1.476l3.816,7.524V0h1.368V-5.292ZM167.4,0V-12.816h-1.368l-4.068,9.09-4.176-9.09H156.42V0h1.368V-9.738l3.564,7.722h1.17l3.51-7.722V0Zm6.876,0V-12.816h-1.368V0Zm12.978-11.592v-1.224H178.47v1.224h3.708V0h1.368V-11.592ZM199.3,0l-4.7-12.816h-1.152L188.73,0h1.458l1.026-2.9h5.6L197.838,0Zm-2.88-4.086h-4.788l2.412-6.768ZM212.634,0V-12.816h-1.368V-2.574l-6.8-10.242h-1.3V0h1.368V-10.278L211.338,0Zm6.876,0V-12.816h-1.368V0Zm19.512-3.528a3.229,3.229,0,0,0-1.08-2.52,3.864,3.864,0,0,0-2.322-.918L234.126-7.2a3.455,3.455,0,0,1-1.674-.666,1.889,1.889,0,0,1-.576-1.494c0-1.44.99-2.394,2.718-2.394a3.978,3.978,0,0,1,2.988,1.116l.882-.882a5.217,5.217,0,0,0-3.816-1.4c-2.538,0-4.1,1.422-4.1,3.6a3.054,3.054,0,0,0,.99,2.412,4.508,4.508,0,0,0,2.34.972l1.494.216a2.757,2.757,0,0,1,1.674.63,2.013,2.013,0,0,1,.63,1.6c0,1.512-1.152,2.376-3.042,2.376A4.388,4.388,0,0,1,231.138-2.5l-.918.918A5.548,5.548,0,0,0,234.594.108C237.276.108,239.022-1.278,239.022-3.528ZM251.64,0V-1.224h-6.588V-5.85h5.616V-7.074h-5.616v-4.518h6.588v-1.224h-7.956V0Zm13.608,0-3.042-5.814A3.325,3.325,0,0,0,265-9.252a3.467,3.467,0,0,0-3.8-3.564h-4.914V0h1.368V-5.688h3.078L263.646,0Zm-1.62-9.234a2.255,2.255,0,0,1-2.556,2.34h-3.42v-4.7h3.42A2.268,2.268,0,0,1,263.628-9.234Zm14-3.582h-1.44l-3.33,10.368-3.33-10.368h-1.44L272.3,0h1.116ZM282.8,0V-12.816H281.43V0Zm13.95-3.708H295.38A3.047,3.047,0,0,1,292.3-1.116a3.042,3.042,0,0,1-2.214-.9c-.81-.828-.9-1.764-.9-4.392s.09-3.564.9-4.392a3.042,3.042,0,0,1,2.214-.9,3.011,3.011,0,0,1,3.042,2.592h1.4a4.338,4.338,0,0,0-4.446-3.816,4.394,4.394,0,0,0-3.2,1.26c-1.206,1.206-1.278,2.322-1.278,5.256s.072,4.05,1.278,5.256a4.394,4.394,0,0,0,3.2,1.26A4.35,4.35,0,0,0,296.748-3.708ZM309.528,0V-1.224H302.94V-5.85h5.616V-7.074H302.94v-4.518h6.588v-1.224h-7.956V0ZM328.41,0V-1.224h-6.588V-5.85h5.616V-7.074h-5.616v-4.518h6.588v-1.224h-7.956V0Zm14.112,0V-12.816h-1.368V-2.574l-6.8-10.242h-1.3V0h1.368V-10.278L341.226,0Zm14.022-4.662V-6.7h-4.518v1.17h3.15v.99a3.418,3.418,0,0,1-.72,2.322,3.123,3.123,0,0,1-2.43,1.1,2.985,2.985,0,0,1-2.214-.9c-.81-.828-.9-1.764-.9-4.392s.09-3.564.9-4.392a2.985,2.985,0,0,1,2.214-.9,3.065,3.065,0,0,1,3.114,2.61h1.368a4.409,4.409,0,0,0-4.482-3.834,4.394,4.394,0,0,0-3.2,1.26c-1.206,1.206-1.278,2.322-1.278,5.256s.072,4.05,1.278,5.256a4.394,4.394,0,0,0,3.2,1.26,4.511,4.511,0,0,0,3.42-1.476A4.345,4.345,0,0,0,356.544-4.662ZM362.9,0V-12.816H361.53V0Zm14.976,0V-12.816h-1.368V-2.574l-6.8-10.242h-1.3V0h1.368V-10.278L376.578,0Zm13.464,0V-1.224H384.75V-5.85h5.616V-7.074H384.75v-4.518h6.588v-1.224h-7.956V0Z" transform="translate(487.5 496.5)" stroke="#000" stroke-width="1"/>
  </g>
</svg>
