<svg xmlns="http://www.w3.org/2000/svg" width="314.912" height="67.934" viewBox="0 0 314.912 67.934">
  <g id="グループ_6849" data-name="グループ 6849" transform="translate(-535.958 -11977.571)">
    <path id="パス_27482" data-name="パス 27482" d="M-139.152-17.29l4.29.078.182-.182v-3.12l-.182-.182-4.29.078H-153.4l-4.316-.078-.182.182v3.12l.182.182,4.316-.078h3.042a18.773,18.773,0,0,1-2.808,5.46,24.6,24.6,0,0,1-5.876,5.59l2.262,2.678c.13.156.26.286.39.286a.318.318,0,0,0,.234-.1,24.868,24.868,0,0,0,3.094-2.834v2.756l-.13,5.876h3.978V.7h8.814V2.158h4.082l-.13-6.006V-7.67l.078-3.588-.182-.182-4,.078H-148.9a24.245,24.245,0,0,0,2.782-5.928ZM-140.4-2.5h-8.814V-8.164h8.814Zm33.7-4.68V-21.4l-.156-.156H-110.4l-.13.156V-7.1l-.156,9.516h4.16ZM-126.386-9.23c0,4.55-.962,7.176-3.3,9.412l2.7,2.21a.7.7,0,0,0,.416.208.492.492,0,0,0,.364-.182c2.522-2.756,3.666-5.59,3.666-11.232V-21.138l-.156-.208h-3.51l-.182.182Zm11.414-10.5h-3.406l-.182.182V-9.178l-.13,7.566h4l-.13-7.566V-19.526ZM-89.336-8.5h7.28l3.536.078.182-.26-.078-3.64v-5.85l.078-3.146-.182-.234-3.536.078h-7.28l-3.484-.078L-93-21.32l.078,3.146v5.85L-93-8.658l.182.234Zm-.026-3.666h7.28v1.092h-7.28Zm0-2.288v-1.066h7.28v1.066Zm0-3.354v-1.066h7.28v1.066Zm4.238,13.494h5.8l3.848.078.13-.156V-7.28l-.208-.156-3.77.078H-94.614v-11.6l-.182-.182h-3.3l-.182.182V-8.4l-.078,3.926.182.234,3.484-.078h5.772V-1.9l-.13,4.42h4.056l-.13-4.42ZM-89.83-1.924-92.274-4.03h-.26A23.63,23.63,0,0,1-99.658-.494L-97.6,1.872c.182.208.312.312.494.312a1.146,1.146,0,0,0,.364-.078,28.82,28.82,0,0,0,6.916-3.77Zm14.716,1.43-.052-.286A34.911,34.911,0,0,0-81.952-4l-.286.052-2,2.314.052.26A38.422,38.422,0,0,1-77.48,2.21l.26-.078Zm23.088-11.18a16.425,16.425,0,0,1,2.574,2.808h.26l1.43-1.014.026-.26A16.674,16.674,0,0,0-50.388-12.9l-.26.026L-52-11.908Zm2.444-1.638a15.646,15.646,0,0,1,2.548,2.7h.26l1.352-.988.026-.26a15.731,15.731,0,0,0-2.574-2.678l-.26.026-1.326.962Zm-18.642,1.456c3.692-1.04,6.474-1.768,9.022-2.392a9.889,9.889,0,0,0-3.484,7.332c0,3.536,1.612,5.72,4.186,6.812a20.7,20.7,0,0,0,8.216,1.2l.208-.156.208-3.952L-50.05-3.2a21.9,21.9,0,0,1-6.214-.572,3.3,3.3,0,0,1-2.522-3.51c0-2.444,1.352-4.81,3.77-6.76,1.586-1.3,4.108-1.82,6.994-2.028l.182-.234-.754-3.458-.234-.13c-7.332,1.326-13.13,2.522-20.384,4.29l-.1.208.858,3.432Zm34.19,2.7c-2.938,1.456-5.538,4.134-5.538,5.72,0,2.574,4.81,4.836,6.5,4.836,1.976,0,2.782-.988,2.782-2.418V-6.838a11.035,11.035,0,0,1,4.966-1.4c1.794,0,2.808.936,2.808,2.262,0,1.508-1.144,2.314-2.652,2.366A6.646,6.646,0,0,1-28-4.342L-28.808-1.2a.407.407,0,0,0,.13.468A6.634,6.634,0,0,0-24.96.156c3.848,0,6.552-2.132,6.552-6.11,0-2.938-2.21-5.616-6.474-5.616a16.635,16.635,0,0,0-5.46,1.144l.026-2.522c1.144-.208,2.314-.494,3.484-.754l.182-.208-.338-3.146-.208-.13c-1.014.286-1.976.546-3.068.78l.052-3.978-.182-.156h-3.38l-.208.182-.026,4.55c-1.638.234-3.354.364-5.148.442l-.182.182.156,3.146.182.156c1.716-.078,3.354-.234,4.992-.468Zm.078,6.162c0,.364-.078.494-.312.494-.416,0-1.586-.624-1.586-1.118,0-.364.754-1.092,1.9-1.768Zm9.516-12.3A14.1,14.1,0,0,1-18.564-11.6l.286-.078,1.95-2.756-.026-.286a14.493,14.493,0,0,0-6.032-3.562l-.286.052-1.846,2.73ZM8.346,1.014V2.5H12.3l-.13-11.674v-7.67l.078-4.446-.208-.156-4.368.078H-6.422l-4.368-.078-.208.156.078,4.446v8.06L-11.05,2.5h3.822V1.014ZM4.134-11.57l3.406.078.182-.182v-2.782l-.182-.182-3.406.078H2.366v-2.834l-.182-.182H-.988l-.182.182v2.834H-3.016l-3.406-.078-.182.182v2.782l.182.182,3.406-.078h.65A15.817,15.817,0,0,1-7.228-7.15v-11H8.346V-7.67a16.625,16.625,0,0,1-4.81-3.9ZM2.314-8.554A16.49,16.49,0,0,0,6.5-4.342a.42.42,0,0,0,.26.1.314.314,0,0,0,.234-.156l1.352-1.82v4H-7.228V-5.8l1.2,1.534c.13.182.208.26.338.26a.548.548,0,0,0,.286-.13,18.965,18.965,0,0,0,4.264-4.16l-.182,5.486H2.5ZM25.168-20.982a42.579,42.579,0,0,1-.858,5.46,29.726,29.726,0,0,0-.988,6.4A10.337,10.337,0,0,0,24.362-4.6l.26.1,3.276-.78.13-.26a9.209,9.209,0,0,1-.676-3.224,7.45,7.45,0,0,1,.546-3.172c.494-1.3,1.742-2.626,2.73-2.626a1.478,1.478,0,0,1,1.56,1.04,11.418,11.418,0,0,1,.494,3.952c0,4.706-1.43,7.2-7.54,8.71L27.82,1.768A.727.727,0,0,0,28.314,2a2.406,2.406,0,0,0,.494-.1C34.944-.182,36.92-3.874,36.92-9.256c0-2.886-.416-5.018-1.534-6.578a4.277,4.277,0,0,0-3.77-2.054,4.269,4.269,0,0,0-3.64,2c.286-.962.494-1.534.676-2.288.156-.754.26-1.352.416-2.548l-.182-.208-3.51-.234Zm42.484-.208a15.413,15.413,0,0,1,2.288,2.938l.26.026,1.456-.858.026-.26a15.834,15.834,0,0,0-2.314-2.912h-.26l-1.4.858Zm-2.574,1.43a17.219,17.219,0,0,1,2.314,3.016l.26.026L69.16-17.6l.052-.26a16.587,16.587,0,0,0-2.392-2.964h-.26l-1.43.832Zm-12.87,1.69-.13,3.692.208.182c1.56.156,3.25.234,4.706.234a46.719,46.719,0,0,0,8.138-.65l.208-.182-.1-3.666-.182-.156a58.585,58.585,0,0,1-8.034.65c-1.534,0-3.068-.078-4.628-.234ZM49.218-5.408C49.53-2.5,50.934.65,58.708.65A83.263,83.263,0,0,0,67.782.234L67.938,0l-.364-3.9-.234-.182a57.3,57.3,0,0,1-8.372.65c-4.342,0-5.746-.416-6.188-3.12l-.208-.1L49.348-5.59ZM95.966-.078l-.1-3.718-.208-.156a76.169,76.169,0,0,1-8.008.52c-3.068,0-5.278-.39-5.278-2.132,0-1.222.91-2.314,2.938-3.484a2.678,2.678,0,0,0,1.794.7,1.916,1.916,0,0,0,1.872-1.69,1.678,1.678,0,0,1,.7-1.3c1.508-.65,3.822-1.534,6.084-2.288l.1-.208-1.534-3.406-.26-.1a74.614,74.614,0,0,0-7.618,3.276,70.613,70.613,0,0,1-3.692-6.058L82.5-20.2l-3.146,1.638-.052.26a71.218,71.218,0,0,0,3.8,6.188C80.34-10.166,78.39-7.9,78.39-5.538c0,4.082,2.99,5.98,9.23,5.98,3.276,0,5.8-.1,8.19-.286Zm21.086-21.034-3.484-.6-.234.156a38.106,38.106,0,0,1-.988,4.316c-1.768.182-3.614.312-5.59.364l-.182.182.078,3.2.208.156c1.43-.026,2.808-.1,4.16-.234a34.259,34.259,0,0,1-5.252,8.788v.234l3.068,1.976.26-.052a45.678,45.678,0,0,0,6.136-11.44c1.144-.156,2.288-.39,3.406-.624l-.65,1.482.13.182a33.008,33.008,0,0,1,3.536.364c-2.158.65-3.484,1.846-3.536,3.25a9.121,9.121,0,0,0,.572,3.172A8.856,8.856,0,0,0,117-6.37c-2.782,0-4.862,1.716-4.862,4.16,0,2.7,2.08,4.056,5.46,4.056,2.938,0,5.226-1.378,5.3-3.484a24.891,24.891,0,0,1,3.042,2.47l.234-.026L128.362-2v-.26a24.88,24.88,0,0,0-5.668-3.328,12.32,12.32,0,0,1-1.144-3.874c0-1.17,1.43-1.82,3.094-1.82a4.278,4.278,0,0,1,2.106.442l.208-.1,1.066-2.886-.078-.26a21.647,21.647,0,0,0-8.034-2.028l-.494-2.288-.234-.1q-1.365.351-2.73.624c.234-.936.52-1.95.754-2.99Zm2.262,18.226c.026,1.04-.832,1.56-2.314,1.56-.936,0-1.508-.416-1.508-1.04,0-.442.52-.988,1.4-.988A4.571,4.571,0,0,1,119.314-2.886Zm22.074-15.392a27.34,27.34,0,0,1,6.11,2.6l.26-.052,1.768-3.042-.052-.26a29.172,29.172,0,0,0-6.292-2.418l-.26.13-1.612,2.834Zm-2.288,3.25a50.779,50.779,0,0,0-1.2,11.05l.182.234,3.172.286.26-.13c2.106-3.692,4.992-4.992,7.332-4.992,2.158,0,2.7,1.144,2.7,2.7,0,2.5-3.874,3.874-10.842,4.082l2.158,3.172c.208.312.364.338.832.338,7.254-.39,12.168-2.574,12.168-7.644,0-3.276-2.366-5.98-6.708-5.98a10.2,10.2,0,0,0-7.436,3.172,36.465,36.465,0,0,1,1.04-5.538l-.156-.234-3.25-.624ZM-141.518,26.906h10.972l4.056.078.182-.156V23.37l-.13-.182-4.108.078h-10.972l-3.952-.078-.234.13V26.8l.182.182Zm1.664,8.034h7.254l4.056.078.182-.156V31.4l-.13-.182-4.108.078h-7.254l-3.952-.078-.234.13v3.484l.182.182Zm-3.692,8.346h15.106l4.056.078.182-.156V39.75l-.13-.182-4.108.078h-15.106l-3.952-.078-.234.13v3.484l.182.182Zm44.694-6.994c.494.286.988.572,1.508.832a.987.987,0,0,0,.468.156c.208,0,.39-.13.65-.442l2.288-2.7a23.3,23.3,0,0,1-10.686-7.462c.1-.182.182-.338.286-.52l-.078-.26-3.38-.91-.286.078c-2.028,4.134-5.512,7.15-11.024,9.828l2.288,2.314c.234.234.39.338.572.338a1.29,1.29,0,0,0,.494-.182c.546-.312,1.066-.6,1.586-.91v3.536l-.13,5.564h3.848V44.04h7.774v1.378h3.952l-.13-5.512Zm-12.142-2.08a24.321,24.321,0,0,0,4.472-4.628,25.3,25.3,0,0,0,4.654,4.628Zm.546,6.6V37.2h7.774v3.614Zm-.572-19.89-.26.026a17.819,17.819,0,0,1-7.436,5.486l2.21,2.626a.448.448,0,0,0,.364.208.9.9,0,0,0,.338-.078,22.408,22.408,0,0,0,7.774-6.188l-.052-.26Zm15.886,4.81A39.879,39.879,0,0,0-102.57,20.9l-.26.026-2.184,2.236v.286a42.837,42.837,0,0,1,7.488,5.486h.312L-95.082,26Zm16.952.182v3.224l.182.234c.832.052,1.638.052,2.47.052a38.466,38.466,0,0,0,7.514-.65l.156-.208-.156-3.276-.182-.156a42.1,42.1,0,0,1-7.332.624c-.806,0-1.638-.026-2.5-.052ZM-66.56,42.09l-.234-3.484-.234-.156A30.378,30.378,0,0,1-71.89,39c-3.484.026-4.5-.754-4.992-3.2l-.234-.078L-79.9,36.994l-.13.234c.624,2.886,2,5.512,7.228,5.512a40.485,40.485,0,0,0,6.11-.416ZM-85.7,23.24a21.872,21.872,0,0,1-.676,4.628,36.485,36.485,0,0,0-1.144,7.9c0,3.744.728,5.85,1.3,6.812.6,1.04,1.222,1.612,2.262,1.586a1.717,1.717,0,0,0,1.794-1.924,17.91,17.91,0,0,1,1.222-5.486l-.754-.39a21.081,21.081,0,0,1-1.326,1.69c-.39.39-.65.364-.728.026A12.357,12.357,0,0,1-83.9,35.46a23.872,23.872,0,0,1,.962-6.032,24.088,24.088,0,0,0,1.2-5.642l-.156-.208-3.588-.494Zm33.046,3.12H-52l3.354.078.156-.13V24.54l3.328-.078h1.248c-.182.468-.39.936-.6,1.378l-2.834-.052-.182.156.078,2.834v7.67l-.078,3.64.182.182,2.418-.052a18.677,18.677,0,0,1-6.162,3.016l1.742,2.158a.624.624,0,0,0,.494.286.9.9,0,0,0,.338-.078,27.694,27.694,0,0,0,6.344-3.3,18.981,18.981,0,0,1,4.732,3.2l.312-.078,2.028-2.444-.052-.26a19,19,0,0,0-4.472-2.522h.494l2.522.078.234-.182-.078-3.77v-7.41L-36.374,26l-.208-.208-3.328.078h-.91c.312-.468.624-.936.91-1.4h.858l3.432.078.156-.13V21.628l-.156-.13-3.432.078h-6.11l-3.432-.078-.156.156v1.638L-52,23.37h-.65v-2.5l-.156-.13h-2.86l-.13.13v2.5h-.858l-3.276-.078-.156.156v2.834l.182.156,3.2-.078h.91v1.612h-.494l-3.224-.078-.182.182.078,2.392v2.288l-.078,2.756.182.208,3.12-.078a22.673,22.673,0,0,1-4.186,5.616l1.664,2.444c.13.182.234.286.364.286.1,0,.182-.052.286-.182a19.713,19.713,0,0,0,2.522-3.848L-56,45.652h3.562L-52.65,39.7v-.936a21.406,21.406,0,0,1,2.054,2.73l.26.026,2.132-1.846.026-.26a18.457,18.457,0,0,0-2.938-3.094h-.26l-1.274,1.04V35.642h.572l3.2.078.208-.234-.078-2.652V30.468l.078-2.392-.182-.182-3.224.078h-.572Zm10.556,15.288-1.9-1.456h3.354Zm-2.08-9.308h4.29v1.326h-4.29Zm-11.518-1.872v2.756h-1.04V30.468Zm2.938,0h1.092v2.756h-1.092Zm8.58-.572V28.57h4.29V29.9Zm0,6.214h4.29v1.378h-4.29Zm23.946-14.04c-3.328,6.552-6.6,13.078-9.8,20.254l.078.286,3.484,1.274.26-.1a58.047,58.047,0,0,1,3.172-6.916c.858-1.534,1.872-2.678,3.172-2.678.858,0,1.144.338,1.144,1.69,0,1.378-.13,3.068-.13,4.212,0,2.574,1.508,3.952,4.472,3.952,2.99,0,5.746-1.9,7.9-5.954.234-.468.208-.6-.052-.962L-8.84,34.03c-1.9,4.056-3.744,5.876-5.356,5.876-.65,0-.754-.494-.728-1.248s.078-2.288.052-3.9a3.6,3.6,0,0,0-3.952-3.692,3.828,3.828,0,0,0-2.028.572c1.378-2.548,2.756-4.862,4.42-7.9l-.078-.286-3.458-1.456ZM15.21,31.326a16.425,16.425,0,0,1,2.574,2.808h.26l1.43-1.014.026-.26A16.674,16.674,0,0,0,16.848,30.1l-.26.026-1.352.962Zm2.444-1.638a15.646,15.646,0,0,1,2.548,2.7h.26l1.352-.988.026-.26a15.73,15.73,0,0,0-2.574-2.678l-.26.026-1.326.962ZM-.988,31.144C2.7,30.1,5.486,29.376,8.034,28.752A9.889,9.889,0,0,0,4.55,36.084c0,3.536,1.612,5.72,4.186,6.812a20.7,20.7,0,0,0,8.216,1.2l.208-.156.208-3.952-.182-.182a21.9,21.9,0,0,1-6.214-.572A3.3,3.3,0,0,1,8.45,35.72c0-2.444,1.352-4.81,3.77-6.76,1.586-1.3,4.108-1.82,6.994-2.028L19.4,26.7l-.754-3.458-.234-.13c-7.332,1.326-13.13,2.522-20.384,4.29l-.1.208.858,3.432Zm102.7-6.422a27.339,27.339,0,0,1,6.11,2.6l.26-.052,1.768-3.042-.052-.26a29.172,29.172,0,0,0-6.292-2.418l-.26.13-1.612,2.834Zm-2.288,3.25a50.779,50.779,0,0,0-1.2,11.05l.182.234,3.172.286.26-.13c2.106-3.692,4.992-4.992,7.332-4.992,2.158,0,2.7,1.144,2.7,2.7,0,2.5-3.874,3.874-10.842,4.082l2.158,3.172c.208.312.364.338.832.338,7.254-.39,12.168-2.574,12.168-7.644,0-3.276-2.366-5.98-6.708-5.98a10.2,10.2,0,0,0-7.436,3.172,36.465,36.465,0,0,1,1.04-5.538l-.156-.234-3.25-.624Zm33.28,1.586c.338-2.444,1.248-3.9,3.2-3.9a2.539,2.539,0,0,1,2.548,2.782c0,1.508-.572,2.548-2.262,4.082-1.768,1.638-2.366,2.756-2.366,4.42h3.3c.286-1.066.988-1.846,2.756-3.146,2.522-1.846,3.38-3.276,3.38-5.408,0-3.9-2.652-5.928-6.968-5.928-4.134,0-7.046,1.95-7.826,6.37Zm2.86,9.2a2.509,2.509,0,1,0,0,5.018,2.509,2.509,0,0,0,0-5.018Z" transform="translate(695 11999.827)"/>
    <g id="グループ_6018" data-name="グループ 6018" transform="translate(9529.412 14242.944)">
      <path id="パス_26770" data-name="パス 26770" d="M362.79,6.352l25.131,2.008V2.008L362.79,0Z" transform="translate(-9163.309 -2226.612)"/>
      <path id="パス_26771" data-name="パス 26771" d="M362.79,64.9l25.131,2.008V60.56L362.79,58.552Z" transform="translate(-9163.309 -2264.537)"/>
      <path id="パス_26772" data-name="パス 26772" d="M365.343,29.48l-.01,6.351L388.672,37.7V31.344Z" transform="translate(-9164.955 -2245.706)"/>
      <path id="パス_26773" data-name="パス 26773" d="M473.9,9.662a32.471,32.471,0,0,0,1-8.814l-.008-.343h-.345L472.313.5V.5L455.083.5l-.078.247a17.431,17.431,0,0,1-.833,2.165,19.379,19.379,0,0,1-2.01,3.43c-.043.056-.084.109-.126.163l0,0-.011.014c-.059.077-.118.152-.176.225a16.46,16.46,0,0,1-2.451,2.176l0,0h-.007v7.488l.2.1c.217.1.26.127,1.809-.96.387-.272.823-.606,1.3-.994.668-.547,1.434-1.216,2.276-1.992a25.045,25.045,0,0,0,4.436-6.016h8.17a13.3,13.3,0,0,1-.641,3.495c-.1.285-.205.565-.312.835l-7.718-1.638L457.641,15.2l6.121,1.3a16.055,16.055,0,0,1-2.857,2.464,22.469,22.469,0,0,1-4.014,2.17,23.743,23.743,0,0,1-3.171,1.077c-.936.226-1.185.281-1.251.295h-.322v6.3l.1.1a.283.283,0,0,0,.247.105,10.726,10.726,0,0,0,1.527-.28,30.288,30.288,0,0,0,3.732-1.141,29.239,29.239,0,0,0,4.939-2.412,29.681,29.681,0,0,0,5.2-4.025,20.347,20.347,0,0,0,4.3-6.143,23.273,23.273,0,0,0,1.7-5.335l.006-.019" transform="translate(-9219.401 -2226.933)"/>
    </g>
  </g>
</svg>
